<svg width="209" height="260" viewBox="0 0 209 260" fill="none" xmlns="http://www.w3.org/2000/svg">
<foreignObject x="86" y="59" width="37" height="37"><div xmlns="http://www.w3.org/1999/xhtml" style="backdrop-filter:blur(2.5px);clip-path:url(#bgblur_0_682_330_clip_path);height:100%;width:100%"></div></foreignObject><g filter="url(#filter0_diii_682_330)" data-figma-bg-blur-radius="5">
<path d="M93 68C93 65.7909 94.7909 64 97 64H112C114.209 64 116 65.7909 116 68V86H93V68Z" fill="#A9A9A9"/>
</g>
<foreignObject x="83" y="78" width="43" height="28"><div xmlns="http://www.w3.org/1999/xhtml" style="backdrop-filter:blur(2.5px);clip-path:url(#bgblur_1_682_330_clip_path);height:100%;width:100%"></div></foreignObject><g filter="url(#filter1_diii_682_330)" data-figma-bg-blur-radius="5">
<path d="M90 87C90 84.7909 91.7909 83 94 83H115C117.209 83 119 84.7909 119 87V96H90V87Z" fill="#A9A9A9"/>
</g>
<circle cx="104.5" cy="71.5" r="2.5" fill="white"/>
<circle cx="104.5" cy="71.5" r="1.5" fill="#9E9089"/>
<foreignObject x="13" y="89" width="183" height="161"><div xmlns="http://www.w3.org/1999/xhtml" style="backdrop-filter:blur(2.5px);clip-path:url(#bgblur_2_682_330_clip_path);height:100%;width:100%"></div></foreignObject><g filter="url(#filter2_diii_682_330)" data-figma-bg-blur-radius="5">
<path d="M162.997 109.677H121.647C122.971 108.013 123.796 105.933 123.796 103.656C123.796 98.3572 119.499 94 114.224 94H94.8193C89.5665 94 85.2471 98.3353 85.2471 103.656C85.2471 105.933 86.0719 108.013 87.396 109.677H46.0468C31.721 109.677 20 121.501 20 135.952V213.725C20 228.176 31.721 240 46.0468 240H162.953C177.279 240 189 228.176 189 213.725V135.952C189 121.501 177.279 109.677 162.953 109.677H162.997Z" fill="#DC9B7E" fill-opacity="0.4" shape-rendering="crispEdges"/>
</g>
<g clip-path="url(#clip3_682_330)">
<path d="M85.1995 178.708V175.561H85.1006C84.8682 175.561 84.705 175.533 84.6159 175.481C84.5269 175.429 84.4824 175.335 84.4824 175.208C84.4824 175.086 84.517 175.001 84.5912 174.945C84.6654 174.893 84.7791 174.865 84.9423 174.865H85.6792C85.7731 174.865 85.8424 174.883 85.8968 174.921C85.9462 174.959 85.9759 175.006 85.9759 175.067V175.401C86.2281 175.18 86.4754 175.015 86.7226 174.907C86.9699 174.799 87.2221 174.747 87.4891 174.747C88.0084 174.747 88.4189 174.902 88.7156 175.208C89.0123 175.514 89.1606 175.942 89.1606 176.483V178.708H89.403C89.576 178.708 89.6997 178.736 89.7788 178.788C89.853 178.844 89.8925 178.929 89.8925 179.046C89.8925 179.173 89.853 179.263 89.7689 179.319C89.6898 179.371 89.5464 179.399 89.3387 179.399H88.1963C87.9738 179.399 87.8353 179.375 87.771 179.324C87.7067 179.272 87.6771 179.183 87.6771 179.046C87.6771 178.919 87.7117 178.83 87.7859 178.783C87.86 178.736 87.9936 178.708 88.1963 178.708H88.3793V176.666C88.3793 176.285 88.2853 175.994 88.1073 175.791C87.9243 175.589 87.6573 175.49 87.3111 175.49C86.9649 175.49 86.6484 175.603 86.3814 175.829C86.1144 176.055 85.9759 176.332 85.9759 176.666V178.708H86.1539C86.3616 178.708 86.5001 178.731 86.5743 178.783C86.6484 178.83 86.6831 178.919 86.6831 179.046C86.6831 179.183 86.6534 179.277 86.5891 179.324C86.5248 179.371 86.3765 179.399 86.1341 179.399H84.9176C84.7742 179.399 84.6703 179.371 84.6011 179.314C84.5319 179.258 84.4973 179.169 84.4973 179.046C84.4973 178.915 84.5368 178.825 84.6209 178.778C84.7 178.731 84.8583 178.708 85.0907 178.708H85.1995Z" fill="#F9F9F4"/>
<path d="M96.1689 177.137C96.1689 177.838 95.9166 178.412 95.4172 178.854C94.9128 179.301 94.2649 179.522 93.4638 179.522C92.6627 179.522 92.0148 179.301 91.5154 178.854C91.0109 178.407 90.7637 177.838 90.7637 177.137C90.7637 176.436 91.0159 175.867 91.5154 175.42C92.0198 174.978 92.6676 174.757 93.4638 174.757C94.26 174.757 94.9128 174.978 95.4172 175.425C95.9216 175.872 96.1738 176.441 96.1738 177.137H96.1689ZM93.4588 178.83C93.988 178.83 94.4232 178.67 94.7595 178.35C95.1007 178.031 95.2688 177.626 95.2688 177.132C95.2688 176.638 95.0957 176.234 94.7595 175.909C94.4182 175.589 93.988 175.425 93.4588 175.425C92.9297 175.425 92.4995 175.585 92.1632 175.909C91.822 176.229 91.6538 176.638 91.6538 177.132C91.6538 177.626 91.822 178.035 92.1582 178.35C92.4945 178.666 92.9297 178.826 93.4588 178.826V178.83Z" fill="#F9F9F4"/>
<path d="M97.5469 179.046V178.171C97.5469 178.025 97.5765 177.927 97.6309 177.861C97.6853 177.8 97.7793 177.767 97.9079 177.767C98.0513 177.767 98.1601 177.856 98.2442 178.039C98.2986 178.152 98.348 178.232 98.3925 178.289C98.5359 178.467 98.7486 178.609 99.0305 178.712C99.3123 178.816 99.6239 178.872 99.9651 178.872C100.331 178.872 100.623 178.801 100.84 178.66C101.058 178.519 101.172 178.336 101.172 178.105C101.172 177.875 101.083 177.705 100.905 177.611C100.727 177.513 100.425 177.466 99.9948 177.466H99.7129C99.0107 177.466 98.4766 177.348 98.1106 177.118C97.7447 176.887 97.5568 176.548 97.5568 176.106C97.5568 175.664 97.7348 175.34 98.0958 175.1C98.4568 174.86 98.9612 174.742 99.6091 174.742C99.8761 174.742 100.143 174.775 100.42 174.846C100.697 174.916 100.84 174.949 100.855 174.949C100.895 174.949 100.964 174.916 101.073 174.855C101.182 174.794 101.285 174.761 101.389 174.761C101.508 174.761 101.592 174.803 101.651 174.883C101.711 174.963 101.736 175.086 101.736 175.25V175.824C101.736 175.998 101.706 176.125 101.651 176.2C101.597 176.276 101.508 176.313 101.389 176.313C101.285 176.313 101.157 176.229 101.009 176.064C100.905 175.951 100.816 175.862 100.746 175.805C100.563 175.645 100.371 175.528 100.163 175.457C99.9552 175.387 99.7129 175.354 99.436 175.354C99.1145 175.354 98.8524 175.42 98.6546 175.556C98.4568 175.692 98.3579 175.866 98.3579 176.073C98.3579 176.28 98.4568 176.426 98.6596 176.515C98.8623 176.605 99.2975 176.657 99.9701 176.666C100.687 176.68 101.206 176.802 101.538 177.023C101.869 177.245 102.032 177.583 102.032 178.049C102.032 178.515 101.849 178.844 101.483 179.107C101.117 179.371 100.628 179.507 100.01 179.507C99.8118 179.507 99.5942 179.488 99.3568 179.455C99.1145 179.422 98.8129 179.361 98.4469 179.281C98.3282 179.356 98.2244 179.413 98.1354 179.451C98.0513 179.488 97.9771 179.507 97.9178 179.507C97.7991 179.507 97.7051 179.465 97.6408 179.385C97.5765 179.305 97.5469 179.187 97.5469 179.037V179.046Z" fill="#F9F9F4"/>
<path d="M104.396 177.348C104.426 177.818 104.594 178.185 104.901 178.444C105.207 178.702 105.628 178.829 106.162 178.829C106.562 178.829 107.002 178.726 107.477 178.524C107.952 178.322 108.239 178.218 108.338 178.218C108.436 178.218 108.525 178.251 108.595 178.312C108.664 178.373 108.699 178.453 108.699 178.543C108.699 178.632 108.664 178.726 108.59 178.801C108.516 178.881 108.402 178.956 108.244 179.032C107.897 179.192 107.546 179.314 107.18 179.399C106.814 179.483 106.448 179.526 106.087 179.526C105.301 179.526 104.678 179.309 104.203 178.881C103.733 178.453 103.496 177.879 103.496 177.169C103.496 176.459 103.743 175.861 104.243 175.41C104.742 174.963 105.39 174.737 106.191 174.737C106.918 174.737 107.517 174.944 107.996 175.368C108.476 175.786 108.713 176.294 108.713 176.887C108.713 177.07 108.674 177.193 108.59 177.254C108.506 177.315 108.288 177.348 107.932 177.348H104.386H104.396ZM104.421 176.703H107.779C107.729 176.313 107.556 176.003 107.264 175.763C106.973 175.523 106.617 175.405 106.196 175.405C105.736 175.405 105.356 175.518 105.039 175.749C104.727 175.979 104.52 176.294 104.421 176.699V176.703Z" fill="#F9F9F4"/>
<path d="M113.891 175.137C114.059 175.137 114.183 175.166 114.262 175.222C114.341 175.279 114.376 175.368 114.376 175.485C114.376 175.598 114.341 175.688 114.267 175.744C114.193 175.801 114.084 175.829 113.941 175.829H111.849V177.466C111.849 178.002 111.923 178.355 112.066 178.524C112.215 178.693 112.462 178.778 112.818 178.778C113.13 178.778 113.505 178.693 113.941 178.519C114.376 178.345 114.648 178.261 114.752 178.261C114.846 178.261 114.93 178.294 114.994 178.359C115.063 178.425 115.093 178.505 115.093 178.599C115.093 178.707 115.053 178.802 114.964 178.882C114.88 178.961 114.737 179.041 114.534 179.117C114.198 179.244 113.896 179.338 113.624 179.394C113.352 179.451 113.1 179.484 112.863 179.484C112.462 179.484 112.121 179.422 111.849 179.3C111.577 179.178 111.369 178.994 111.236 178.755C111.166 178.642 111.117 178.505 111.087 178.345C111.058 178.19 111.043 177.945 111.043 177.621V175.829H110.167C110.024 175.829 109.92 175.801 109.851 175.749C109.787 175.692 109.752 175.608 109.752 175.485C109.752 175.349 109.796 175.26 109.885 175.213C109.974 175.166 110.167 175.137 110.459 175.137H111.043V173.872C111.043 173.731 111.072 173.628 111.137 173.562C111.201 173.496 111.3 173.463 111.433 173.463C111.587 173.463 111.69 173.505 111.75 173.585C111.809 173.665 111.839 173.853 111.839 174.145V175.142H113.876L113.891 175.137Z" fill="#F9F9F4"/>
<path d="M120.01 178.774C119.728 179.013 119.422 179.202 119.09 179.329C118.759 179.456 118.418 179.521 118.067 179.521C117.552 179.521 117.142 179.385 116.825 179.112C116.509 178.839 116.355 178.487 116.355 178.054C116.355 177.537 116.563 177.137 116.984 176.85C117.404 176.563 117.987 176.422 118.744 176.422C118.942 176.422 119.145 176.436 119.347 176.459C119.55 176.483 119.758 176.521 119.97 176.577V176.544C119.97 176.168 119.876 175.89 119.689 175.712C119.501 175.533 119.204 175.443 118.803 175.443C118.536 175.443 118.235 175.514 117.903 175.65C117.572 175.787 117.354 175.857 117.251 175.857C117.152 175.857 117.068 175.82 117.003 175.74C116.939 175.664 116.904 175.566 116.904 175.443C116.904 175.251 117.092 175.086 117.473 174.954C117.854 174.823 118.339 174.752 118.932 174.752C119.525 174.752 119.995 174.898 120.307 175.189C120.618 175.481 120.772 175.914 120.772 176.488V178.712H121.024C121.266 178.712 121.429 178.736 121.513 178.788C121.597 178.835 121.637 178.924 121.637 179.051C121.637 179.169 121.602 179.258 121.533 179.315C121.464 179.376 121.36 179.404 121.222 179.404H120.411C120.312 179.404 120.233 179.376 120.173 179.319C120.109 179.263 120.069 179.183 120.05 179.079L120.01 178.778V178.774ZM119.97 177.231C119.783 177.174 119.6 177.127 119.422 177.099C119.244 177.071 119.07 177.057 118.892 177.057C118.363 177.057 117.943 177.141 117.636 177.311C117.33 177.48 117.176 177.711 117.176 177.997C117.176 178.219 117.27 178.402 117.463 178.548C117.656 178.694 117.898 178.764 118.195 178.764C118.63 178.764 119.036 178.656 119.412 178.44C119.783 178.223 119.97 177.997 119.97 177.758V177.226V177.231Z" fill="#F9F9F4"/>
<path d="M124.82 173.679H123.945C123.614 173.679 123.401 173.656 123.317 173.604C123.233 173.552 123.193 173.463 123.193 173.326C123.193 173.209 123.228 173.119 123.297 173.063C123.366 173.007 123.47 172.974 123.604 172.974H125.305C125.399 172.974 125.468 172.992 125.523 173.025C125.572 173.063 125.602 173.11 125.602 173.171V178.703H127.224C127.352 178.703 127.451 178.731 127.511 178.783C127.57 178.839 127.6 178.924 127.6 179.041C127.6 179.178 127.57 179.267 127.511 179.319C127.451 179.371 127.342 179.394 127.179 179.394H123.371C123.238 179.394 123.134 179.366 123.065 179.305C122.996 179.248 122.961 179.159 122.961 179.041C122.961 178.924 122.996 178.844 123.07 178.787C123.144 178.731 123.253 178.703 123.396 178.703H124.825V173.679H124.82Z" fill="#F9F9F4"/>
<path d="M133.605 179.136C133.605 179.592 133.58 179.916 133.531 180.109C133.481 180.302 133.397 180.467 133.283 180.613C133.09 180.852 132.818 181.041 132.472 181.163C132.126 181.29 131.716 181.351 131.241 181.351C130.85 181.351 130.563 181.313 130.38 181.243C130.197 181.172 130.108 181.055 130.108 180.9C130.108 180.796 130.153 180.707 130.242 180.631C130.331 180.556 130.435 180.519 130.553 180.519C130.647 180.519 130.791 180.533 130.984 180.556C131.177 180.58 131.325 180.594 131.424 180.594C131.933 180.594 132.294 180.481 132.507 180.26C132.72 180.039 132.828 179.658 132.828 179.117V178.524C132.621 178.755 132.388 178.924 132.131 179.032C131.874 179.14 131.582 179.192 131.256 179.192C130.613 179.192 130.079 178.99 129.658 178.581C129.238 178.171 129.025 177.659 129.025 177.033C129.025 176.408 129.243 175.885 129.673 175.471C130.103 175.058 130.642 174.851 131.285 174.851C131.552 174.851 131.81 174.898 132.062 174.992C132.314 175.086 132.571 175.227 132.828 175.415V175.062C132.828 174.992 132.853 174.945 132.898 174.912C132.942 174.879 133.016 174.865 133.115 174.865H133.896C134.035 174.865 134.139 174.893 134.208 174.949C134.277 175.006 134.312 175.09 134.312 175.208C134.312 175.34 134.267 175.429 134.183 175.481C134.099 175.533 133.936 175.561 133.704 175.561H133.61V179.14L133.605 179.136ZM131.365 175.589C130.914 175.589 130.549 175.721 130.262 175.984C129.975 176.248 129.831 176.591 129.831 177.014C129.831 177.438 129.975 177.772 130.262 178.04C130.549 178.308 130.914 178.439 131.365 178.439C131.815 178.439 132.18 178.308 132.467 178.04C132.754 177.772 132.898 177.433 132.898 177.014C132.898 176.596 132.754 176.257 132.467 175.989C132.18 175.721 131.815 175.584 131.365 175.584V175.589Z" fill="#F9F9F4"/>
<path d="M138.326 178.708H139.983C140.116 178.708 140.215 178.736 140.28 178.788C140.344 178.844 140.374 178.929 140.374 179.046C140.374 179.183 140.344 179.272 140.285 179.324C140.225 179.375 140.111 179.399 139.953 179.399H135.953C135.814 179.399 135.71 179.371 135.641 179.31C135.572 179.253 135.537 179.164 135.537 179.046C135.537 178.929 135.572 178.849 135.646 178.792C135.72 178.736 135.829 178.708 135.972 178.708H137.545V175.556H136.536C136.393 175.556 136.289 175.528 136.215 175.467C136.14 175.406 136.101 175.321 136.101 175.208C136.101 175.095 136.135 175.01 136.205 174.954C136.274 174.898 136.378 174.869 136.516 174.869H138.03C138.123 174.869 138.198 174.888 138.247 174.926C138.302 174.963 138.326 175.01 138.326 175.072V178.712V178.708ZM137.372 173.449C137.372 173.096 137.406 172.875 137.471 172.781C137.54 172.692 137.683 172.645 137.901 172.645C138.119 172.645 138.257 172.682 138.326 172.762C138.395 172.837 138.43 173.021 138.43 173.308C138.43 173.595 138.4 173.764 138.336 173.83C138.272 173.896 138.128 173.929 137.906 173.929C137.683 173.929 137.545 173.896 137.476 173.835C137.406 173.773 137.377 173.642 137.377 173.449H137.372Z" fill="#F9F9F4"/>
<path d="M145.373 178.774C145.091 179.013 144.785 179.202 144.453 179.329C144.122 179.456 143.781 179.521 143.43 179.521C142.916 179.521 142.505 179.385 142.189 179.112C141.872 178.839 141.719 178.487 141.719 178.054C141.719 177.537 141.926 177.137 142.347 176.85C142.767 176.563 143.351 176.422 144.107 176.422C144.305 176.422 144.508 176.436 144.711 176.459C144.913 176.483 145.121 176.521 145.334 176.577V176.544C145.334 176.168 145.24 175.89 145.052 175.712C144.864 175.533 144.567 175.443 144.172 175.443C143.905 175.443 143.603 175.514 143.272 175.65C142.94 175.787 142.723 175.857 142.614 175.857C142.515 175.857 142.431 175.82 142.367 175.74C142.302 175.664 142.268 175.566 142.268 175.443C142.268 175.251 142.456 175.086 142.836 174.954C143.217 174.823 143.702 174.752 144.295 174.752C144.889 174.752 145.358 174.898 145.67 175.189C145.982 175.481 146.135 175.914 146.135 176.488V178.712H146.387C146.629 178.712 146.793 178.736 146.877 178.788C146.961 178.839 147 178.924 147 179.051C147 179.169 146.966 179.258 146.896 179.315C146.827 179.376 146.723 179.404 146.585 179.404H145.774C145.68 179.404 145.601 179.376 145.536 179.319C145.472 179.263 145.433 179.183 145.413 179.079L145.373 178.778V178.774ZM145.334 177.231C145.146 177.174 144.963 177.127 144.785 177.099C144.607 177.071 144.434 177.057 144.256 177.057C143.727 177.057 143.306 177.141 143 177.311C142.693 177.48 142.54 177.711 142.54 177.997C142.54 178.219 142.634 178.402 142.826 178.548C143.019 178.694 143.262 178.764 143.558 178.764C143.994 178.764 144.399 178.656 144.775 178.44C145.151 178.223 145.334 177.997 145.334 177.758V177.226V177.231Z" fill="#F9F9F4"/>
<path d="M70.3429 177.701L73.488 177.122C73.6315 177.094 73.6315 176.901 73.488 176.873L70.3429 176.294C70.2489 176.275 70.2044 176.177 70.2588 176.101L71.5396 174.295C71.6237 174.182 71.4753 174.041 71.3566 174.121L69.7247 175.17C69.6456 175.222 69.5368 175.179 69.5219 175.09L68.6466 170.796C68.617 170.659 68.4142 170.659 68.3845 170.796L67.5092 175.09C67.4894 175.179 67.3856 175.222 67.3065 175.17L65.6745 174.121C65.5558 174.041 65.4075 174.182 65.4915 174.295L66.7724 176.101C66.8268 176.177 66.7823 176.28 66.6883 176.294L63.5431 176.873C63.3997 176.901 63.3997 177.094 63.5431 177.122L66.6883 177.701C66.7823 177.719 66.8268 177.818 66.7724 177.894L65.4915 179.7C65.4075 179.813 65.5558 179.954 65.6745 179.874L67.3065 178.825C67.3856 178.773 67.4944 178.815 67.5092 178.905L68.3845 183.199C68.4142 183.336 68.617 183.336 68.6466 183.199L69.5219 178.905C69.5417 178.815 69.6456 178.773 69.7247 178.825L71.3566 179.874C71.4753 179.954 71.6237 179.813 71.5396 179.7L70.2588 177.894C70.2044 177.818 70.2489 177.715 70.3429 177.701Z" fill="#F9F9F4"/>
<path d="M68.5136 187C62.7178 187 58 182.513 58 177C58 171.487 62.7178 167 68.5136 167C68.7312 167 68.9093 167.169 68.9093 167.376C68.9093 167.583 68.7312 167.753 68.5136 167.753C63.153 167.753 58.7912 171.901 58.7912 177C58.7912 182.099 63.153 186.247 68.5136 186.247C68.7312 186.247 68.9093 186.417 68.9093 186.624C68.9093 186.831 68.7312 187 68.5136 187Z" fill="url(#paint0_linear_682_330)"/>
<path d="M68.5128 187C68.2952 187 68.1172 186.831 68.1172 186.624C68.1172 186.417 68.2952 186.247 68.5128 186.247C73.8735 186.247 78.2352 182.099 78.2352 177C78.2352 171.901 73.8735 167.753 68.5128 167.753C68.2952 167.753 68.1172 167.583 68.1172 167.376C68.1172 167.169 68.2952 167 68.5128 167C74.3087 167 79.0265 171.487 79.0265 177C79.0265 182.513 74.3087 187 68.5128 187Z" fill="url(#paint1_linear_682_330)"/>
<path d="M68.5142 185.57C63.5491 185.57 59.5039 181.727 59.5039 177C59.5039 172.273 63.5491 168.43 68.5142 168.43C68.7318 168.43 68.9098 168.599 68.9098 168.806C68.9098 169.013 68.7318 169.182 68.5142 169.182C63.9843 169.182 60.2951 172.691 60.2951 177C60.2951 181.308 63.9843 184.817 68.5142 184.817C68.7318 184.817 68.9098 184.987 68.9098 185.194C68.9098 185.401 68.7318 185.57 68.5142 185.57Z" fill="url(#paint2_linear_682_330)"/>
<path d="M68.5128 185.57C68.2952 185.57 68.1172 185.401 68.1172 185.194C68.1172 184.987 68.2952 184.817 68.5128 184.817C73.0427 184.817 76.7318 181.308 76.7318 177C76.7318 172.691 73.0427 169.182 68.5128 169.182C68.2952 169.182 68.1172 169.013 68.1172 168.806C68.1172 168.599 68.2952 168.43 68.5128 168.43C73.4779 168.43 77.5231 172.273 77.5231 177C77.5231 181.727 73.4828 185.57 68.5128 185.57Z" fill="url(#paint3_linear_682_330)"/>
</g>
<defs>
<filter id="filter0_diii_682_330" x="86" y="59" width="37" height="37" filterUnits="userSpaceOnUse" color-interpolation-filters="sRGB">
<feFlood flood-opacity="0" result="BackgroundImageFix"/>
<feColorMatrix in="SourceAlpha" type="matrix" values="0 0 0 0 0 0 0 0 0 0 0 0 0 0 0 0 0 0 127 0" result="hardAlpha"/>
<feOffset dy="3"/>
<feGaussianBlur stdDeviation="3.5"/>
<feComposite in2="hardAlpha" operator="out"/>
<feColorMatrix type="matrix" values="0 0 0 0 0.560784 0 0 0 0 0.360784 0 0 0 0 0.262745 0 0 0 0.4 0"/>
<feBlend mode="normal" in2="BackgroundImageFix" result="effect1_dropShadow_682_330"/>
<feBlend mode="normal" in="SourceGraphic" in2="effect1_dropShadow_682_330" result="shape"/>
<feColorMatrix in="SourceAlpha" type="matrix" values="0 0 0 0 0 0 0 0 0 0 0 0 0 0 0 0 0 0 127 0" result="hardAlpha"/>
<feOffset dy="-2"/>
<feGaussianBlur stdDeviation="15"/>
<feComposite in2="hardAlpha" operator="arithmetic" k2="-1" k3="1"/>
<feColorMatrix type="matrix" values="0 0 0 0 0.817834 0 0 0 0 0.551284 0 0 0 0 0.418009 0 0 0 0.5 0"/>
<feBlend mode="multiply" in2="shape" result="effect2_innerShadow_682_330"/>
<feColorMatrix in="SourceAlpha" type="matrix" values="0 0 0 0 0 0 0 0 0 0 0 0 0 0 0 0 0 0 127 0" result="hardAlpha"/>
<feOffset dx="3" dy="3"/>
<feGaussianBlur stdDeviation="3"/>
<feComposite in2="hardAlpha" operator="arithmetic" k2="-1" k3="1"/>
<feColorMatrix type="matrix" values="0 0 0 0 1 0 0 0 0 1 0 0 0 0 1 0 0 0 1 0"/>
<feBlend mode="normal" in2="effect2_innerShadow_682_330" result="effect3_innerShadow_682_330"/>
<feColorMatrix in="SourceAlpha" type="matrix" values="0 0 0 0 0 0 0 0 0 0 0 0 0 0 0 0 0 0 127 0" result="hardAlpha"/>
<feOffset dx="-2" dy="-2"/>
<feGaussianBlur stdDeviation="1.5"/>
<feComposite in2="hardAlpha" operator="arithmetic" k2="-1" k3="1"/>
<feColorMatrix type="matrix" values="0 0 0 0 1 0 0 0 0 1 0 0 0 0 1 0 0 0 0.5 0"/>
<feBlend mode="normal" in2="effect3_innerShadow_682_330" result="effect4_innerShadow_682_330"/>
</filter>
<clipPath id="bgblur_0_682_330_clip_path" transform="translate(-86 -59)"><path d="M93 68C93 65.7909 94.7909 64 97 64H112C114.209 64 116 65.7909 116 68V86H93V68Z"/>
</clipPath><filter id="filter1_diii_682_330" x="83" y="78" width="43" height="28" filterUnits="userSpaceOnUse" color-interpolation-filters="sRGB">
<feFlood flood-opacity="0" result="BackgroundImageFix"/>
<feColorMatrix in="SourceAlpha" type="matrix" values="0 0 0 0 0 0 0 0 0 0 0 0 0 0 0 0 0 0 127 0" result="hardAlpha"/>
<feOffset dy="3"/>
<feGaussianBlur stdDeviation="3.5"/>
<feComposite in2="hardAlpha" operator="out"/>
<feColorMatrix type="matrix" values="0 0 0 0 0.560784 0 0 0 0 0.360784 0 0 0 0 0.262745 0 0 0 0.4 0"/>
<feBlend mode="normal" in2="BackgroundImageFix" result="effect1_dropShadow_682_330"/>
<feBlend mode="normal" in="SourceGraphic" in2="effect1_dropShadow_682_330" result="shape"/>
<feColorMatrix in="SourceAlpha" type="matrix" values="0 0 0 0 0 0 0 0 0 0 0 0 0 0 0 0 0 0 127 0" result="hardAlpha"/>
<feOffset dy="-2"/>
<feGaussianBlur stdDeviation="15"/>
<feComposite in2="hardAlpha" operator="arithmetic" k2="-1" k3="1"/>
<feColorMatrix type="matrix" values="0 0 0 0 0.817834 0 0 0 0 0.551284 0 0 0 0 0.418009 0 0 0 0.5 0"/>
<feBlend mode="multiply" in2="shape" result="effect2_innerShadow_682_330"/>
<feColorMatrix in="SourceAlpha" type="matrix" values="0 0 0 0 0 0 0 0 0 0 0 0 0 0 0 0 0 0 127 0" result="hardAlpha"/>
<feOffset dx="3" dy="3"/>
<feGaussianBlur stdDeviation="3"/>
<feComposite in2="hardAlpha" operator="arithmetic" k2="-1" k3="1"/>
<feColorMatrix type="matrix" values="0 0 0 0 1 0 0 0 0 1 0 0 0 0 1 0 0 0 1 0"/>
<feBlend mode="normal" in2="effect2_innerShadow_682_330" result="effect3_innerShadow_682_330"/>
<feColorMatrix in="SourceAlpha" type="matrix" values="0 0 0 0 0 0 0 0 0 0 0 0 0 0 0 0 0 0 127 0" result="hardAlpha"/>
<feOffset dx="-2" dy="-2"/>
<feGaussianBlur stdDeviation="1.5"/>
<feComposite in2="hardAlpha" operator="arithmetic" k2="-1" k3="1"/>
<feColorMatrix type="matrix" values="0 0 0 0 1 0 0 0 0 1 0 0 0 0 1 0 0 0 0.5 0"/>
<feBlend mode="normal" in2="effect3_innerShadow_682_330" result="effect4_innerShadow_682_330"/>
</filter>
<clipPath id="bgblur_1_682_330_clip_path" transform="translate(-83 -78)"><path d="M90 87C90 84.7909 91.7909 83 94 83H115C117.209 83 119 84.7909 119 87V96H90V87Z"/>
</clipPath><filter id="filter2_diii_682_330" x="13" y="89" width="183" height="161" filterUnits="userSpaceOnUse" color-interpolation-filters="sRGB">
<feFlood flood-opacity="0" result="BackgroundImageFix"/>
<feColorMatrix in="SourceAlpha" type="matrix" values="0 0 0 0 0 0 0 0 0 0 0 0 0 0 0 0 0 0 127 0" result="hardAlpha"/>
<feOffset dy="3"/>
<feGaussianBlur stdDeviation="3.5"/>
<feComposite in2="hardAlpha" operator="out"/>
<feColorMatrix type="matrix" values="0 0 0 0 0.560784 0 0 0 0 0.360784 0 0 0 0 0.262745 0 0 0 0.4 0"/>
<feBlend mode="normal" in2="BackgroundImageFix" result="effect1_dropShadow_682_330"/>
<feBlend mode="normal" in="SourceGraphic" in2="effect1_dropShadow_682_330" result="shape"/>
<feColorMatrix in="SourceAlpha" type="matrix" values="0 0 0 0 0 0 0 0 0 0 0 0 0 0 0 0 0 0 127 0" result="hardAlpha"/>
<feOffset dy="-2"/>
<feGaussianBlur stdDeviation="15"/>
<feComposite in2="hardAlpha" operator="arithmetic" k2="-1" k3="1"/>
<feColorMatrix type="matrix" values="0 0 0 0 0.817834 0 0 0 0 0.551284 0 0 0 0 0.418009 0 0 0 0.5 0"/>
<feBlend mode="multiply" in2="shape" result="effect2_innerShadow_682_330"/>
<feColorMatrix in="SourceAlpha" type="matrix" values="0 0 0 0 0 0 0 0 0 0 0 0 0 0 0 0 0 0 127 0" result="hardAlpha"/>
<feOffset dx="3" dy="3"/>
<feGaussianBlur stdDeviation="3"/>
<feComposite in2="hardAlpha" operator="arithmetic" k2="-1" k3="1"/>
<feColorMatrix type="matrix" values="0 0 0 0 1 0 0 0 0 1 0 0 0 0 1 0 0 0 1 0"/>
<feBlend mode="normal" in2="effect2_innerShadow_682_330" result="effect3_innerShadow_682_330"/>
<feColorMatrix in="SourceAlpha" type="matrix" values="0 0 0 0 0 0 0 0 0 0 0 0 0 0 0 0 0 0 127 0" result="hardAlpha"/>
<feOffset dx="-2" dy="-2"/>
<feGaussianBlur stdDeviation="1.5"/>
<feComposite in2="hardAlpha" operator="arithmetic" k2="-1" k3="1"/>
<feColorMatrix type="matrix" values="0 0 0 0 1 0 0 0 0 1 0 0 0 0 1 0 0 0 0.5 0"/>
<feBlend mode="normal" in2="effect3_innerShadow_682_330" result="effect4_innerShadow_682_330"/>
</filter>
<clipPath id="bgblur_2_682_330_clip_path" transform="translate(-13 -89)"><path d="M162.997 109.677H121.647C122.971 108.013 123.796 105.933 123.796 103.656C123.796 98.3572 119.499 94 114.224 94H94.8193C89.5665 94 85.2471 98.3353 85.2471 103.656C85.2471 105.933 86.0719 108.013 87.396 109.677H46.0468C31.721 109.677 20 121.501 20 135.952V213.725C20 228.176 31.721 240 46.0468 240H162.953C177.279 240 189 228.176 189 213.725V135.952C189 121.501 177.279 109.677 162.953 109.677H162.997Z"/>
</clipPath><linearGradient id="paint0_linear_682_330" x1="63.4546" y1="167" x2="63.4546" y2="187" gradientUnits="userSpaceOnUse">
<stop stop-color="#F9F9F4"/>
<stop offset="0.8" stop-color="#F7DEC6" stop-opacity="0"/>
</linearGradient>
<linearGradient id="paint1_linear_682_330" x1="73.5718" y1="187" x2="73.5718" y2="167" gradientUnits="userSpaceOnUse">
<stop stop-color="#F9F9F4"/>
<stop offset="0.8" stop-color="#F7DEC6" stop-opacity="0"/>
</linearGradient>
<linearGradient id="paint2_linear_682_330" x1="64.2069" y1="168.43" x2="64.2069" y2="185.57" gradientUnits="userSpaceOnUse">
<stop stop-color="#F9F9F4"/>
<stop offset="0.8" stop-color="#F7DEC6" stop-opacity="0"/>
</linearGradient>
<linearGradient id="paint3_linear_682_330" x1="72.8201" y1="185.57" x2="72.8201" y2="168.43" gradientUnits="userSpaceOnUse">
<stop stop-color="#F9F9F4"/>
<stop offset="0.8" stop-color="#F7DEC6" stop-opacity="0"/>
</linearGradient>
<clipPath id="clip3_682_330">
<rect width="89" height="20" fill="white" transform="translate(58 167)"/>
</clipPath>
</defs>
</svg>
