<svg width="233" height="59" viewBox="0 0 233 59" fill="none" xmlns="http://www.w3.org/2000/svg">
<g clip-path="url(#clip0_698_356)">
<foreignObject x="-3.40039" y="15.792" width="240.043" height="46.7761"><div xmlns="http://www.w3.org/1999/xhtml" style="backdrop-filter:blur(2.5px);clip-path:url(#bgblur_1_698_356_clip_path);height:100%;width:100%"></div></foreignObject><g filter="url(#filter0_diii_698_356)" data-figma-bg-blur-radius="5">
<path d="M3.6 47V21.176H11.04V31.256H22.272V21.176H29.76V47H22.272V37.352H11.04V47H3.6ZM52.3841 47V41.96L51.9041 40.856V31.832C51.9041 30.232 51.4081 28.984 50.4161 28.088C49.4561 27.192 47.9681 26.744 45.9521 26.744C44.5761 26.744 43.2161 26.968 41.8721 27.416C40.5601 27.832 39.4401 28.408 38.5121 29.144L35.8241 23.912C37.2321 22.92 38.9281 22.152 40.9121 21.608C42.8961 21.064 44.9121 20.792 46.9601 20.792C50.8961 20.792 53.9521 21.72 56.1281 23.576C58.3041 25.432 59.3921 28.328 59.3921 32.264V47H52.3841ZM44.5121 47.384C42.4961 47.384 40.7681 47.048 39.3281 46.376C37.8881 45.672 36.7841 44.728 36.0161 43.544C35.2481 42.36 34.8641 41.032 34.8641 39.56C34.8641 38.024 35.2321 36.68 35.9681 35.528C36.7361 34.376 37.9361 33.48 39.5681 32.84C41.2001 32.168 43.3281 31.832 45.9521 31.832H52.8161V36.2H46.7681C45.0081 36.2 43.7921 36.488 43.1201 37.064C42.4801 37.64 42.1601 38.36 42.1601 39.224C42.1601 40.184 42.5281 40.952 43.2641 41.528C44.0321 42.072 45.0721 42.344 46.3841 42.344C47.6321 42.344 48.7521 42.056 49.7441 41.48C50.7361 40.872 51.4561 39.992 51.9041 38.84L53.0561 42.296C52.5121 43.96 51.5201 45.224 50.0801 46.088C48.6401 46.952 46.7841 47.384 44.5121 47.384ZM83.6569 43.64V27.32H75.2089L75.0649 30.632C75.0009 32.008 74.9209 33.32 74.8249 34.568C74.7289 35.816 74.5369 36.952 74.2489 37.976C73.9929 38.968 73.6089 39.816 73.0969 40.52C72.5849 41.192 71.8969 41.656 71.0329 41.912L63.6409 40.856C64.5689 40.856 65.3209 40.584 65.8969 40.04C66.4729 39.464 66.9209 38.68 67.2409 37.688C67.5609 36.664 67.8009 35.512 67.9609 34.232C68.1209 32.92 68.2329 31.544 68.2969 30.104L68.6329 21.176H91.1449V43.64H83.6569ZM62.7769 52.568V40.856H94.8409V52.568H87.8809V47H69.7369V52.568H62.7769ZM112.177 47.384C109.233 47.384 106.641 46.808 104.401 45.656C102.193 44.504 100.481 42.936 99.2651 40.952C98.0491 38.936 97.4411 36.648 97.4411 34.088C97.4411 31.496 98.0331 29.208 99.2171 27.224C100.433 25.208 102.081 23.64 104.161 22.52C106.241 21.368 108.593 20.792 111.217 20.792C113.745 20.792 116.017 21.336 118.033 22.424C120.081 23.48 121.697 25.016 122.881 27.032C124.065 29.016 124.657 31.4 124.657 34.184C124.657 34.472 124.641 34.808 124.609 35.192C124.577 35.544 124.545 35.88 124.513 36.2H103.537V31.832H120.577L117.697 33.128C117.697 31.784 117.425 30.616 116.881 29.624C116.337 28.632 115.585 27.864 114.625 27.32C113.665 26.744 112.545 26.456 111.265 26.456C109.985 26.456 108.849 26.744 107.857 27.32C106.897 27.864 106.145 28.648 105.601 29.672C105.057 30.664 104.785 31.848 104.785 33.224V34.376C104.785 35.784 105.089 37.032 105.697 38.12C106.337 39.176 107.217 39.992 108.337 40.568C109.489 41.112 110.833 41.384 112.369 41.384C113.745 41.384 114.945 41.176 115.969 40.76C117.025 40.344 117.985 39.72 118.849 38.888L122.833 43.208C121.649 44.552 120.161 45.592 118.369 46.328C116.577 47.032 114.513 47.384 112.177 47.384ZM160.75 47L153.886 34.76L159.934 31.16L169.63 47H160.75ZM149.47 37.208V31.208H158.446V37.208H149.47ZM160.702 34.952L153.646 34.184L161.086 21.176H169.006L160.702 34.952ZM135.214 47H126.382L136.03 31.16L142.078 34.76L135.214 47ZM151.678 47H144.286V21.176H151.678V47ZM146.494 37.208H137.566V31.208H146.494V37.208ZM135.262 34.952L126.958 21.176H134.878L142.27 34.184L135.262 34.952ZM191.282 43.64V27.32H182.834L182.69 30.632C182.626 32.008 182.546 33.32 182.45 34.568C182.354 35.816 182.162 36.952 181.874 37.976C181.618 38.968 181.234 39.816 180.722 40.52C180.21 41.192 179.522 41.656 178.658 41.912L171.266 40.856C172.194 40.856 172.946 40.584 173.522 40.04C174.098 39.464 174.546 38.68 174.866 37.688C175.186 36.664 175.426 35.512 175.586 34.232C175.746 32.92 175.858 31.544 175.922 30.104L176.258 21.176H198.77V43.64H191.282ZM170.402 52.568V40.856H202.466V52.568H195.506V47H177.362V52.568H170.402ZM222.634 47V41.96L222.154 40.856V31.832C222.154 30.232 221.658 28.984 220.666 28.088C219.706 27.192 218.218 26.744 216.202 26.744C214.826 26.744 213.466 26.968 212.122 27.416C210.81 27.832 209.69 28.408 208.762 29.144L206.074 23.912C207.482 22.92 209.178 22.152 211.162 21.608C213.146 21.064 215.162 20.792 217.21 20.792C221.146 20.792 224.202 21.72 226.378 23.576C228.554 25.432 229.642 28.328 229.642 32.264V47H222.634ZM214.762 47.384C212.746 47.384 211.018 47.048 209.578 46.376C208.138 45.672 207.034 44.728 206.266 43.544C205.498 42.36 205.114 41.032 205.114 39.56C205.114 38.024 205.482 36.68 206.218 35.528C206.986 34.376 208.186 33.48 209.818 32.84C211.45 32.168 213.578 31.832 216.202 31.832H223.066V36.2H217.018C215.258 36.2 214.042 36.488 213.37 37.064C212.73 37.64 212.41 38.36 212.41 39.224C212.41 40.184 212.778 40.952 213.514 41.528C214.282 42.072 215.322 42.344 216.634 42.344C217.882 42.344 219.002 42.056 219.994 41.48C220.986 40.872 221.706 39.992 222.154 38.84L223.306 42.296C222.762 43.96 221.77 45.224 220.33 46.088C218.89 46.952 217.034 47.384 214.762 47.384Z" fill="white" fill-opacity="0.2" shape-rendering="crispEdges"/>
</g>
</g>
<defs>
<filter id="filter0_diii_698_356" x="-3.40039" y="15.792" width="240.043" height="46.7761" filterUnits="userSpaceOnUse" color-interpolation-filters="sRGB">
<feFlood flood-opacity="0" result="BackgroundImageFix"/>
<feColorMatrix in="SourceAlpha" type="matrix" values="0 0 0 0 0 0 0 0 0 0 0 0 0 0 0 0 0 0 127 0" result="hardAlpha"/>
<feOffset dy="3"/>
<feGaussianBlur stdDeviation="3.5"/>
<feComposite in2="hardAlpha" operator="out"/>
<feColorMatrix type="matrix" values="0 0 0 0 0.560784 0 0 0 0 0.360784 0 0 0 0 0.262745 0 0 0 0.4 0"/>
<feBlend mode="normal" in2="BackgroundImageFix" result="effect1_dropShadow_698_356"/>
<feBlend mode="normal" in="SourceGraphic" in2="effect1_dropShadow_698_356" result="shape"/>
<feColorMatrix in="SourceAlpha" type="matrix" values="0 0 0 0 0 0 0 0 0 0 0 0 0 0 0 0 0 0 127 0" result="hardAlpha"/>
<feOffset dy="-2"/>
<feGaussianBlur stdDeviation="15"/>
<feComposite in2="hardAlpha" operator="arithmetic" k2="-1" k3="1"/>
<feColorMatrix type="matrix" values="0 0 0 0 0.817834 0 0 0 0 0.551284 0 0 0 0 0.418009 0 0 0 0.5 0"/>
<feBlend mode="multiply" in2="shape" result="effect2_innerShadow_698_356"/>
<feColorMatrix in="SourceAlpha" type="matrix" values="0 0 0 0 0 0 0 0 0 0 0 0 0 0 0 0 0 0 127 0" result="hardAlpha"/>
<feOffset dx="3" dy="3"/>
<feGaussianBlur stdDeviation="3"/>
<feComposite in2="hardAlpha" operator="arithmetic" k2="-1" k3="1"/>
<feColorMatrix type="matrix" values="0 0 0 0 1 0 0 0 0 1 0 0 0 0 1 0 0 0 1 0"/>
<feBlend mode="normal" in2="effect2_innerShadow_698_356" result="effect3_innerShadow_698_356"/>
<feColorMatrix in="SourceAlpha" type="matrix" values="0 0 0 0 0 0 0 0 0 0 0 0 0 0 0 0 0 0 127 0" result="hardAlpha"/>
<feOffset dx="-2" dy="-2"/>
<feGaussianBlur stdDeviation="1.5"/>
<feComposite in2="hardAlpha" operator="arithmetic" k2="-1" k3="1"/>
<feColorMatrix type="matrix" values="0 0 0 0 1 0 0 0 0 1 0 0 0 0 1 0 0 0 0.5 0"/>
<feBlend mode="normal" in2="effect3_innerShadow_698_356" result="effect4_innerShadow_698_356"/>
</filter>
<clipPath id="bgblur_1_698_356_clip_path" transform="translate(3.40039 -15.792)"><path d="M3.6 47V21.176H11.04V31.256H22.272V21.176H29.76V47H22.272V37.352H11.04V47H3.6ZM52.3841 47V41.96L51.9041 40.856V31.832C51.9041 30.232 51.4081 28.984 50.4161 28.088C49.4561 27.192 47.9681 26.744 45.9521 26.744C44.5761 26.744 43.2161 26.968 41.8721 27.416C40.5601 27.832 39.4401 28.408 38.5121 29.144L35.8241 23.912C37.2321 22.92 38.9281 22.152 40.9121 21.608C42.8961 21.064 44.9121 20.792 46.9601 20.792C50.8961 20.792 53.9521 21.72 56.1281 23.576C58.3041 25.432 59.3921 28.328 59.3921 32.264V47H52.3841ZM44.5121 47.384C42.4961 47.384 40.7681 47.048 39.3281 46.376C37.8881 45.672 36.7841 44.728 36.0161 43.544C35.2481 42.36 34.8641 41.032 34.8641 39.56C34.8641 38.024 35.2321 36.68 35.9681 35.528C36.7361 34.376 37.9361 33.48 39.5681 32.84C41.2001 32.168 43.3281 31.832 45.9521 31.832H52.8161V36.2H46.7681C45.0081 36.2 43.7921 36.488 43.1201 37.064C42.4801 37.64 42.1601 38.36 42.1601 39.224C42.1601 40.184 42.5281 40.952 43.2641 41.528C44.0321 42.072 45.0721 42.344 46.3841 42.344C47.6321 42.344 48.7521 42.056 49.7441 41.48C50.7361 40.872 51.4561 39.992 51.9041 38.84L53.0561 42.296C52.5121 43.96 51.5201 45.224 50.0801 46.088C48.6401 46.952 46.7841 47.384 44.5121 47.384ZM83.6569 43.64V27.32H75.2089L75.0649 30.632C75.0009 32.008 74.9209 33.32 74.8249 34.568C74.7289 35.816 74.5369 36.952 74.2489 37.976C73.9929 38.968 73.6089 39.816 73.0969 40.52C72.5849 41.192 71.8969 41.656 71.0329 41.912L63.6409 40.856C64.5689 40.856 65.3209 40.584 65.8969 40.04C66.4729 39.464 66.9209 38.68 67.2409 37.688C67.5609 36.664 67.8009 35.512 67.9609 34.232C68.1209 32.92 68.2329 31.544 68.2969 30.104L68.6329 21.176H91.1449V43.64H83.6569ZM62.7769 52.568V40.856H94.8409V52.568H87.8809V47H69.7369V52.568H62.7769ZM112.177 47.384C109.233 47.384 106.641 46.808 104.401 45.656C102.193 44.504 100.481 42.936 99.2651 40.952C98.0491 38.936 97.4411 36.648 97.4411 34.088C97.4411 31.496 98.0331 29.208 99.2171 27.224C100.433 25.208 102.081 23.64 104.161 22.52C106.241 21.368 108.593 20.792 111.217 20.792C113.745 20.792 116.017 21.336 118.033 22.424C120.081 23.48 121.697 25.016 122.881 27.032C124.065 29.016 124.657 31.4 124.657 34.184C124.657 34.472 124.641 34.808 124.609 35.192C124.577 35.544 124.545 35.88 124.513 36.2H103.537V31.832H120.577L117.697 33.128C117.697 31.784 117.425 30.616 116.881 29.624C116.337 28.632 115.585 27.864 114.625 27.32C113.665 26.744 112.545 26.456 111.265 26.456C109.985 26.456 108.849 26.744 107.857 27.32C106.897 27.864 106.145 28.648 105.601 29.672C105.057 30.664 104.785 31.848 104.785 33.224V34.376C104.785 35.784 105.089 37.032 105.697 38.12C106.337 39.176 107.217 39.992 108.337 40.568C109.489 41.112 110.833 41.384 112.369 41.384C113.745 41.384 114.945 41.176 115.969 40.76C117.025 40.344 117.985 39.72 118.849 38.888L122.833 43.208C121.649 44.552 120.161 45.592 118.369 46.328C116.577 47.032 114.513 47.384 112.177 47.384ZM160.75 47L153.886 34.76L159.934 31.16L169.63 47H160.75ZM149.47 37.208V31.208H158.446V37.208H149.47ZM160.702 34.952L153.646 34.184L161.086 21.176H169.006L160.702 34.952ZM135.214 47H126.382L136.03 31.16L142.078 34.76L135.214 47ZM151.678 47H144.286V21.176H151.678V47ZM146.494 37.208H137.566V31.208H146.494V37.208ZM135.262 34.952L126.958 21.176H134.878L142.27 34.184L135.262 34.952ZM191.282 43.64V27.32H182.834L182.69 30.632C182.626 32.008 182.546 33.32 182.45 34.568C182.354 35.816 182.162 36.952 181.874 37.976C181.618 38.968 181.234 39.816 180.722 40.52C180.21 41.192 179.522 41.656 178.658 41.912L171.266 40.856C172.194 40.856 172.946 40.584 173.522 40.04C174.098 39.464 174.546 38.68 174.866 37.688C175.186 36.664 175.426 35.512 175.586 34.232C175.746 32.92 175.858 31.544 175.922 30.104L176.258 21.176H198.77V43.64H191.282ZM170.402 52.568V40.856H202.466V52.568H195.506V47H177.362V52.568H170.402ZM222.634 47V41.96L222.154 40.856V31.832C222.154 30.232 221.658 28.984 220.666 28.088C219.706 27.192 218.218 26.744 216.202 26.744C214.826 26.744 213.466 26.968 212.122 27.416C210.81 27.832 209.69 28.408 208.762 29.144L206.074 23.912C207.482 22.92 209.178 22.152 211.162 21.608C213.146 21.064 215.162 20.792 217.21 20.792C221.146 20.792 224.202 21.72 226.378 23.576C228.554 25.432 229.642 28.328 229.642 32.264V47H222.634ZM214.762 47.384C212.746 47.384 211.018 47.048 209.578 46.376C208.138 45.672 207.034 44.728 206.266 43.544C205.498 42.36 205.114 41.032 205.114 39.56C205.114 38.024 205.482 36.68 206.218 35.528C206.986 34.376 208.186 33.48 209.818 32.84C211.45 32.168 213.578 31.832 216.202 31.832H223.066V36.2H217.018C215.258 36.2 214.042 36.488 213.37 37.064C212.73 37.64 212.41 38.36 212.41 39.224C212.41 40.184 212.778 40.952 213.514 41.528C214.282 42.072 215.322 42.344 216.634 42.344C217.882 42.344 219.002 42.056 219.994 41.48C220.986 40.872 221.706 39.992 222.154 38.84L223.306 42.296C222.762 43.96 221.77 45.224 220.33 46.088C218.89 46.952 217.034 47.384 214.762 47.384Z"/>
</clipPath><clipPath id="clip0_698_356">
<rect width="233" height="59" fill="white"/>
</clipPath>
</defs>
</svg>
