<svg width="209" height="228" viewBox="0 0 209 228" fill="none" xmlns="http://www.w3.org/2000/svg">
<foreignObject x="40" y="15" width="129" height="203"><div xmlns="http://www.w3.org/1999/xhtml" style="backdrop-filter:blur(2.5px);clip-path:url(#bgblur_0_682_334_clip_path);height:100%;width:100%"></div></foreignObject><g filter="url(#filter0_diii_682_334)" data-figma-bg-blur-radius="5">
<path d="M142.83 36.9919H122.753C124.217 35.1934 125.123 32.9215 125.123 30.4129C125.123 24.6858 120.522 20 114.875 20H94.1015C88.4781 20 83.8771 24.6858 83.8771 30.4366C83.8771 32.9451 84.7834 35.217 86.2474 37.0156H66.1705C55.6209 37.0156 47 45.7956 47 56.5398V188.476C47 199.22 55.6209 208 66.1705 208H142.83C153.379 208 162 199.22 162 188.476V56.5398C162 45.7956 153.379 37.0156 142.83 37.0156V36.9919Z" fill="#B8B674" fill-opacity="0.4" shape-rendering="crispEdges"/>
</g>
<defs>
<filter id="filter0_diii_682_334" x="40" y="15" width="129" height="203" filterUnits="userSpaceOnUse" color-interpolation-filters="sRGB">
<feFlood flood-opacity="0" result="BackgroundImageFix"/>
<feColorMatrix in="SourceAlpha" type="matrix" values="0 0 0 0 0 0 0 0 0 0 0 0 0 0 0 0 0 0 127 0" result="hardAlpha"/>
<feOffset dy="3"/>
<feGaussianBlur stdDeviation="3.5"/>
<feComposite in2="hardAlpha" operator="out"/>
<feColorMatrix type="matrix" values="0 0 0 0 0.560784 0 0 0 0 0.360784 0 0 0 0 0.262745 0 0 0 0.4 0"/>
<feBlend mode="normal" in2="BackgroundImageFix" result="effect1_dropShadow_682_334"/>
<feBlend mode="normal" in="SourceGraphic" in2="effect1_dropShadow_682_334" result="shape"/>
<feColorMatrix in="SourceAlpha" type="matrix" values="0 0 0 0 0 0 0 0 0 0 0 0 0 0 0 0 0 0 127 0" result="hardAlpha"/>
<feOffset dy="-2"/>
<feGaussianBlur stdDeviation="15"/>
<feComposite in2="hardAlpha" operator="arithmetic" k2="-1" k3="1"/>
<feColorMatrix type="matrix" values="0 0 0 0 0.817834 0 0 0 0 0.551284 0 0 0 0 0.418009 0 0 0 0.5 0"/>
<feBlend mode="multiply" in2="shape" result="effect2_innerShadow_682_334"/>
<feColorMatrix in="SourceAlpha" type="matrix" values="0 0 0 0 0 0 0 0 0 0 0 0 0 0 0 0 0 0 127 0" result="hardAlpha"/>
<feOffset dx="3" dy="3"/>
<feGaussianBlur stdDeviation="3"/>
<feComposite in2="hardAlpha" operator="arithmetic" k2="-1" k3="1"/>
<feColorMatrix type="matrix" values="0 0 0 0 1 0 0 0 0 1 0 0 0 0 1 0 0 0 1 0"/>
<feBlend mode="normal" in2="effect2_innerShadow_682_334" result="effect3_innerShadow_682_334"/>
<feColorMatrix in="SourceAlpha" type="matrix" values="0 0 0 0 0 0 0 0 0 0 0 0 0 0 0 0 0 0 127 0" result="hardAlpha"/>
<feOffset dx="-2" dy="-2"/>
<feGaussianBlur stdDeviation="1.5"/>
<feComposite in2="hardAlpha" operator="arithmetic" k2="-1" k3="1"/>
<feColorMatrix type="matrix" values="0 0 0 0 1 0 0 0 0 1 0 0 0 0 1 0 0 0 0.5 0"/>
<feBlend mode="normal" in2="effect3_innerShadow_682_334" result="effect4_innerShadow_682_334"/>
</filter>
<clipPath id="bgblur_0_682_334_clip_path" transform="translate(-40 -15)"><path d="M142.83 36.9919H122.753C124.217 35.1934 125.123 32.9215 125.123 30.4129C125.123 24.6858 120.522 20 114.875 20H94.1015C88.4781 20 83.8771 24.6858 83.8771 30.4366C83.8771 32.9451 84.7834 35.217 86.2474 37.0156H66.1705C55.6209 37.0156 47 45.7956 47 56.5398V188.476C47 199.22 55.6209 208 66.1705 208H142.83C153.379 208 162 199.22 162 188.476V56.5398C162 45.7956 153.379 37.0156 142.83 37.0156V36.9919Z"/>
</clipPath></defs>
</svg>
