<svg width="209" height="228" viewBox="0 0 209 228" fill="none" xmlns="http://www.w3.org/2000/svg">
<foreignObject x="40" y="15" width="130" height="203"><div xmlns="http://www.w3.org/1999/xhtml" style="backdrop-filter:blur(2.5px);clip-path:url(#bgblur_0_682_331_clip_path);height:100%;width:100%"></div></foreignObject><g filter="url(#filter0_diii_682_331)" data-figma-bg-blur-radius="5">
<path d="M163 122.494C163 82.8402 144.682 49.5037 119.851 39.8505C123.365 38.1707 125.801 34.598 125.801 30.4339C125.801 24.7083 121.163 20 115.471 20H94.5291C88.8602 20 84.1987 24.6846 84.1987 30.4339C84.1987 34.598 86.6583 38.1707 90.1486 39.8505C65.3183 49.5037 47 82.8402 47 122.494C47 150.673 56.2528 175.657 70.5186 191.249C69.1833 193 68.34 195.176 68.34 197.566C68.34 203.292 72.9782 208 78.6704 208H131.283C136.952 208 141.613 203.315 141.613 197.566C141.613 195.176 140.77 193.023 139.435 191.249C153.7 175.681 162.953 150.696 162.953 122.494H163Z" fill="#B8B674" fill-opacity="0.4" shape-rendering="crispEdges"/>
</g>
<defs>
<filter id="filter0_diii_682_331" x="40" y="15" width="130" height="203" filterUnits="userSpaceOnUse" color-interpolation-filters="sRGB">
<feFlood flood-opacity="0" result="BackgroundImageFix"/>
<feColorMatrix in="SourceAlpha" type="matrix" values="0 0 0 0 0 0 0 0 0 0 0 0 0 0 0 0 0 0 127 0" result="hardAlpha"/>
<feOffset dy="3"/>
<feGaussianBlur stdDeviation="3.5"/>
<feComposite in2="hardAlpha" operator="out"/>
<feColorMatrix type="matrix" values="0 0 0 0 0.560784 0 0 0 0 0.360784 0 0 0 0 0.262745 0 0 0 0.4 0"/>
<feBlend mode="normal" in2="BackgroundImageFix" result="effect1_dropShadow_682_331"/>
<feBlend mode="normal" in="SourceGraphic" in2="effect1_dropShadow_682_331" result="shape"/>
<feColorMatrix in="SourceAlpha" type="matrix" values="0 0 0 0 0 0 0 0 0 0 0 0 0 0 0 0 0 0 127 0" result="hardAlpha"/>
<feOffset dy="-2"/>
<feGaussianBlur stdDeviation="15"/>
<feComposite in2="hardAlpha" operator="arithmetic" k2="-1" k3="1"/>
<feColorMatrix type="matrix" values="0 0 0 0 0.817834 0 0 0 0 0.551284 0 0 0 0 0.418009 0 0 0 0.5 0"/>
<feBlend mode="multiply" in2="shape" result="effect2_innerShadow_682_331"/>
<feColorMatrix in="SourceAlpha" type="matrix" values="0 0 0 0 0 0 0 0 0 0 0 0 0 0 0 0 0 0 127 0" result="hardAlpha"/>
<feOffset dx="3" dy="3"/>
<feGaussianBlur stdDeviation="3"/>
<feComposite in2="hardAlpha" operator="arithmetic" k2="-1" k3="1"/>
<feColorMatrix type="matrix" values="0 0 0 0 1 0 0 0 0 1 0 0 0 0 1 0 0 0 1 0"/>
<feBlend mode="normal" in2="effect2_innerShadow_682_331" result="effect3_innerShadow_682_331"/>
<feColorMatrix in="SourceAlpha" type="matrix" values="0 0 0 0 0 0 0 0 0 0 0 0 0 0 0 0 0 0 127 0" result="hardAlpha"/>
<feOffset dx="-2" dy="-2"/>
<feGaussianBlur stdDeviation="1.5"/>
<feComposite in2="hardAlpha" operator="arithmetic" k2="-1" k3="1"/>
<feColorMatrix type="matrix" values="0 0 0 0 1 0 0 0 0 1 0 0 0 0 1 0 0 0 0.5 0"/>
<feBlend mode="normal" in2="effect3_innerShadow_682_331" result="effect4_innerShadow_682_331"/>
</filter>
<clipPath id="bgblur_0_682_331_clip_path" transform="translate(-40 -15)"><path d="M163 122.494C163 82.8402 144.682 49.5037 119.851 39.8505C123.365 38.1707 125.801 34.598 125.801 30.4339C125.801 24.7083 121.163 20 115.471 20H94.5291C88.8602 20 84.1987 24.6846 84.1987 30.4339C84.1987 34.598 86.6583 38.1707 90.1486 39.8505C65.3183 49.5037 47 82.8402 47 122.494C47 150.673 56.2528 175.657 70.5186 191.249C69.1833 193 68.34 195.176 68.34 197.566C68.34 203.292 72.9782 208 78.6704 208H131.283C136.952 208 141.613 203.315 141.613 197.566C141.613 195.176 140.77 193.023 139.435 191.249C153.7 175.681 162.953 150.696 162.953 122.494H163Z"/>
</clipPath></defs>
</svg>
