<svg width="150" height="35" viewBox="0 0 150 35" fill="none" xmlns="http://www.w3.org/2000/svg">
<g clip-path="url(#clip0_658_63)">
<path d="M45.8421 20.4848V14.9794H45.6758C45.2833 14.9794 45.0105 14.9334 44.8641 14.8414C44.7177 14.7494 44.6445 14.5917 44.6445 14.3618C44.6445 14.1516 44.7044 13.9939 44.8242 13.9019C44.9439 13.8099 45.1435 13.7574 45.4163 13.7574H46.6605C46.8202 13.7574 46.9399 13.7902 47.0264 13.8494C47.1129 13.9151 47.1595 14.0005 47.1595 14.1056V14.6903C47.5853 14.3027 48.0045 14.0136 48.417 13.8296C48.8295 13.6457 49.262 13.5537 49.7077 13.5537C50.586 13.5537 51.2713 13.8231 51.7703 14.3618C52.2693 14.9005 52.5221 15.6429 52.5221 16.5955V20.4848H52.9346C53.2274 20.4848 53.4336 20.5308 53.5667 20.6294C53.6931 20.7214 53.7596 20.8725 53.7596 21.0827C53.7596 21.3061 53.6931 21.4637 53.5534 21.5623C53.4137 21.6543 53.1741 21.7068 52.8282 21.7068H50.8987C50.5261 21.7068 50.2866 21.6608 50.1868 21.5754C50.087 21.49 50.0271 21.3258 50.0271 21.0893C50.0271 20.8659 50.087 20.7082 50.2134 20.6228C50.3332 20.5374 50.566 20.4914 50.9053 20.4914H51.2114V16.9174C51.2114 16.2473 51.0584 15.7349 50.7523 15.3867C50.4463 15.0319 49.9938 14.8611 49.4083 14.8611C48.8228 14.8611 48.2906 15.0582 47.8381 15.4524C47.3857 15.8466 47.1595 16.3393 47.1595 16.9174V20.4914H47.4656C47.8115 20.4914 48.0511 20.5374 48.1708 20.6228C48.2906 20.7082 48.3505 20.8659 48.3505 21.0893C48.3505 21.3324 48.2972 21.49 48.1908 21.5754C48.0843 21.6608 47.8315 21.7068 47.4256 21.7068H45.3764C45.1369 21.7068 44.9572 21.6543 44.8441 21.5557C44.7244 21.4572 44.6645 21.2995 44.6645 21.0893C44.6645 20.8593 44.731 20.7017 44.8707 20.6228C45.0038 20.5374 45.2699 20.498 45.6691 20.498H45.8488L45.8421 20.4848Z" fill="#DA8590"/>
<path d="M64.3249 17.7321C64.3249 18.9541 63.8991 19.9593 63.0541 20.7345C62.2091 21.5098 61.1113 21.904 59.7607 21.904C58.41 21.904 57.3189 21.5164 56.4739 20.7345C55.6289 19.9527 55.2031 18.9541 55.2031 17.7321C55.2031 16.5102 55.6289 15.505 56.4739 14.7297C57.3189 13.9545 58.4167 13.5669 59.7607 13.5669C61.1047 13.5669 62.2025 13.9545 63.0541 14.7363C63.9057 15.5181 64.3249 16.5167 64.3249 17.7321ZM59.7607 20.6951C60.6522 20.6951 61.3841 20.4192 61.9563 19.8608C62.5285 19.3023 62.8146 18.5928 62.8146 17.7321C62.8146 16.8715 62.5285 16.1554 61.9563 15.5904C61.3841 15.0254 60.6522 14.7429 59.7673 14.7429C58.8824 14.7429 58.1506 15.0254 57.5784 15.5904C57.0062 16.1554 56.7201 16.8649 56.7201 17.7321C56.7201 18.5994 57.0062 19.3155 57.5717 19.8673C58.1373 20.4192 58.8691 20.7017 59.7607 20.7017V20.6951Z" fill="#DA8590"/>
<path d="M66.661 21.0761V19.5454C66.661 19.2957 66.7075 19.1118 66.8073 19.0066C66.9005 18.9015 67.0602 18.8424 67.2731 18.8424C67.5126 18.8424 67.6989 19.0001 67.8386 19.322C67.9317 19.5191 68.0182 19.6636 68.0914 19.7622C68.3376 20.071 68.6969 20.3206 69.1693 20.5046C69.6417 20.6885 70.1673 20.7805 70.7395 20.7805C71.3516 20.7805 71.8439 20.6557 72.2165 20.4126C72.5891 20.1695 72.7754 19.841 72.7754 19.4403C72.7754 19.0395 72.629 18.7439 72.3296 18.573C72.0302 18.4022 71.5179 18.3168 70.7927 18.3168H70.3136C69.1293 18.3168 68.2311 18.1132 67.6124 17.7058C66.9936 17.2985 66.6809 16.7072 66.6809 15.9385C66.6809 15.1699 66.9803 14.5983 67.5924 14.1778C68.1979 13.7574 69.0495 13.5537 70.1407 13.5537C70.5864 13.5537 71.0389 13.6128 71.5046 13.7377C71.9703 13.8625 72.2099 13.9216 72.2365 13.9216C72.303 13.9216 72.4228 13.8625 72.6024 13.7508C72.782 13.6391 72.9617 13.58 73.1347 13.58C73.3343 13.58 73.4806 13.6523 73.5738 13.7968C73.6669 13.9413 73.7135 14.1516 73.7135 14.4406V15.4458C73.7135 15.748 73.6669 15.9714 73.5738 16.1028C73.4806 16.2342 73.3343 16.3065 73.128 16.3065C72.955 16.3065 72.7421 16.1619 72.4826 15.8663C72.303 15.6692 72.1566 15.5115 72.0369 15.413C71.7308 15.1305 71.4048 14.9334 71.0522 14.8085C70.7062 14.6837 70.2937 14.6246 69.8279 14.6246C69.2824 14.6246 68.8433 14.7428 68.5106 14.9794C68.1779 15.2159 68.0116 15.5181 68.0116 15.886C68.0116 16.2539 68.1846 16.5036 68.5239 16.6612C68.8632 16.8123 69.6017 16.9043 70.7328 16.9306C71.9371 16.9569 72.822 17.1671 73.3742 17.5547C73.9331 17.9423 74.2125 18.5402 74.2125 19.3417C74.2125 20.1432 73.9065 20.7345 73.2877 21.1944C72.6756 21.6608 71.8439 21.8908 70.7993 21.8908C70.4667 21.8908 70.1007 21.8579 69.6949 21.7988C69.289 21.7397 68.7767 21.6346 68.1646 21.4966C67.9584 21.628 67.7854 21.7265 67.6456 21.7922C67.4993 21.8579 67.3795 21.8908 67.2797 21.8908C67.0735 21.8908 66.9204 21.8185 66.814 21.6806C66.7075 21.5426 66.6543 21.3389 66.6543 21.0761H66.661Z" fill="#DA8590"/>
<path d="M78.1974 18.0999C78.244 18.9277 78.5235 19.565 79.0491 20.0183C79.568 20.4716 80.2733 20.695 81.1715 20.695C81.8501 20.695 82.5887 20.5176 83.3871 20.1562C84.1855 19.8015 84.6712 19.6175 84.8375 19.6175C85.0038 19.6175 85.1569 19.6701 85.27 19.7818C85.3897 19.8935 85.443 20.0249 85.443 20.1825C85.443 20.3402 85.3831 20.4979 85.2633 20.6358C85.1436 20.7738 84.944 20.9052 84.6778 21.0366C84.099 21.3125 83.5002 21.5293 82.8814 21.6739C82.2627 21.825 81.6505 21.8972 81.0384 21.8972C79.7144 21.8972 78.6565 21.5228 77.8648 20.7672C77.073 20.0117 76.6738 19.0197 76.6738 17.7714C76.6738 16.5231 77.093 15.4851 77.938 14.6967C78.7763 13.9149 79.8741 13.5208 81.2247 13.5208C82.4489 13.5208 83.4603 13.8887 84.2653 14.6179C85.0704 15.3472 85.4762 16.2406 85.4762 17.2787C85.4762 17.6006 85.4097 17.8174 85.27 17.9225C85.1303 18.0276 84.7643 18.0868 84.1589 18.0868H78.1841L78.1974 18.0999ZM78.244 16.9765H83.906C83.8195 16.2932 83.5334 15.7479 83.0411 15.334C82.5487 14.9201 81.9499 14.7099 81.238 14.7099C80.4662 14.7099 79.8142 14.907 79.2886 15.3077C78.763 15.7085 78.4104 16.2669 78.244 16.9765Z" fill="#DA8590"/>
<path d="M94.1981 14.2367C94.4842 14.2367 94.6904 14.2827 94.8168 14.3813C94.9499 14.4798 95.0098 14.6309 95.0098 14.8477C95.0098 15.0448 94.9499 15.1959 94.8301 15.3011C94.7104 15.3996 94.5241 15.4522 94.2846 15.4522H90.7649V18.3232C90.7649 19.2626 90.8913 19.8802 91.1375 20.1758C91.3837 20.4715 91.8095 20.6226 92.4017 20.6226C92.9273 20.6226 93.5593 20.4715 94.2979 20.1693C95.0364 19.8671 95.4888 19.716 95.6618 19.716C95.8215 19.716 95.9612 19.7751 96.0743 19.8868C96.1874 19.9985 96.2473 20.143 96.2473 20.3072C96.2473 20.4978 96.1741 20.662 96.0344 20.8C95.8947 20.9379 95.6485 21.0759 95.3092 21.2073C94.7436 21.4307 94.2313 21.5949 93.7722 21.6935C93.3132 21.792 92.8873 21.8511 92.4881 21.8511C91.8095 21.8511 91.2373 21.746 90.7782 21.5292C90.3192 21.3124 89.9732 20.9971 89.747 20.57C89.6339 20.3729 89.5474 20.1299 89.5008 19.8539C89.4542 19.578 89.4276 19.1575 89.4276 18.586V15.4522H87.9506C87.7044 15.4522 87.5314 15.4062 87.4183 15.3076C87.3052 15.2156 87.252 15.058 87.252 14.8477C87.252 14.6112 87.3251 14.4536 87.4782 14.3681C87.6312 14.2827 87.9506 14.2367 88.4429 14.2367H89.4276V12.0227C89.4276 11.7731 89.4808 11.5957 89.5873 11.4774C89.6937 11.3592 89.8601 11.3 90.0863 11.3C90.3391 11.3 90.5188 11.3723 90.6186 11.5169C90.7184 11.6614 90.7649 11.9833 90.7649 12.4958V14.2367H94.1981Z" fill="#DA8590"/>
<path d="M104.511 20.6031C104.038 21.0236 103.519 21.3521 102.96 21.5754C102.402 21.7988 101.823 21.9105 101.237 21.9105C100.372 21.9105 99.6736 21.674 99.148 21.1944C98.6157 20.7214 98.3496 20.1038 98.3496 19.3417C98.3496 18.4351 98.7022 17.7387 99.4075 17.2394C100.113 16.7401 101.104 16.4904 102.375 16.4904C102.714 16.4904 103.047 16.5101 103.393 16.5561C103.732 16.6021 104.085 16.6678 104.444 16.7598V16.7006C104.444 16.0437 104.284 15.5575 103.965 15.2422C103.646 14.9268 103.153 14.7691 102.475 14.7691C102.022 14.7691 101.517 14.8874 100.964 15.1305C100.412 15.3735 100.04 15.4918 99.8599 15.4918C99.6936 15.4918 99.5539 15.4261 99.4408 15.2881C99.3277 15.1567 99.2744 14.9794 99.2744 14.7691C99.2744 14.4341 99.5938 14.145 100.233 13.9085C100.871 13.672 101.69 13.5537 102.688 13.5537C103.686 13.5537 104.477 13.8099 105.003 14.3224C105.529 14.8348 105.788 15.5903 105.788 16.5955V20.4848H106.214C106.626 20.4848 106.899 20.5308 107.039 20.6162C107.179 20.7017 107.245 20.8593 107.245 21.0827C107.245 21.2864 107.185 21.444 107.072 21.5492C106.952 21.6543 106.779 21.7068 106.547 21.7068H105.183C105.023 21.7068 104.883 21.6608 104.783 21.5623C104.677 21.4637 104.61 21.3258 104.577 21.1418L104.511 20.6162V20.6031ZM104.444 17.8963C104.125 17.7912 103.819 17.719 103.519 17.6664C103.22 17.6204 102.92 17.5941 102.628 17.5941C101.736 17.5941 101.031 17.7452 100.512 18.0409C99.993 18.3365 99.7402 18.7373 99.7402 19.2432C99.7402 19.6308 99.8998 19.9527 100.226 20.2023C100.545 20.452 100.958 20.5834 101.457 20.5834C102.195 20.5834 102.874 20.3929 103.506 20.0118C104.131 19.6308 104.451 19.2366 104.451 18.8227V17.8963H104.444Z" fill="#DA8590"/>
<path d="M112.615 11.6878H111.138C110.579 11.6878 110.22 11.6418 110.08 11.5564C109.94 11.471 109.867 11.3067 109.867 11.0702C109.867 10.8665 109.927 10.7089 110.047 10.6037C110.167 10.4986 110.34 10.4526 110.566 10.4526H113.433C113.586 10.4526 113.713 10.4855 113.799 10.5446C113.886 10.6103 113.932 10.6957 113.932 10.8008V20.4782H116.66C116.88 20.4782 117.039 20.5241 117.146 20.6227C117.246 20.7147 117.299 20.8658 117.299 21.076C117.299 21.3125 117.252 21.4702 117.153 21.5622C117.053 21.6541 116.866 21.6936 116.594 21.6936H110.173C109.947 21.6936 109.774 21.641 109.654 21.5359C109.534 21.4308 109.475 21.2797 109.475 21.0694C109.475 20.8592 109.534 20.7212 109.661 20.6227C109.781 20.5241 109.967 20.4782 110.206 20.4782H112.615V11.6878Z" fill="#DA8590"/>
<path d="M127.427 21.2403C127.427 22.0418 127.387 22.6068 127.307 22.9419C127.227 23.2769 127.087 23.5726 126.888 23.8222C126.562 24.2427 126.102 24.5646 125.517 24.788C124.932 25.0113 124.24 25.1165 123.448 25.1165C122.789 25.1165 122.303 25.0508 121.997 24.9259C121.691 24.8011 121.538 24.5974 121.538 24.3281C121.538 24.1507 121.611 23.993 121.758 23.8616C121.904 23.7302 122.084 23.658 122.283 23.658C122.443 23.658 122.683 23.6777 123.002 23.7237C123.328 23.7697 123.574 23.7894 123.741 23.7894C124.599 23.7894 125.204 23.5923 125.57 23.2046C125.93 22.817 126.109 22.1469 126.109 21.2009V20.1628C125.757 20.5702 125.364 20.8658 124.932 21.0563C124.499 21.2468 124.007 21.3388 123.454 21.3388C122.37 21.3388 121.472 20.9841 120.76 20.268C120.048 19.5518 119.695 18.6518 119.695 17.5612C119.695 16.4706 120.061 15.5508 120.793 14.8282C121.525 14.1055 122.43 13.7441 123.508 13.7441C123.953 13.7441 124.393 13.823 124.818 13.9872C125.244 14.1515 125.677 14.4011 126.109 14.7296V14.112C126.109 13.9938 126.149 13.9018 126.229 13.8427C126.309 13.7836 126.429 13.7573 126.602 13.7573H127.912C128.145 13.7573 128.318 13.8098 128.438 13.9084C128.551 14.0069 128.611 14.158 128.611 14.3617C128.611 14.5916 128.538 14.7493 128.398 14.8413C128.258 14.9333 127.985 14.9793 127.586 14.9793H127.433V21.2403H127.427ZM123.647 15.0318C122.889 15.0318 122.27 15.2618 121.784 15.7282C121.305 16.1947 121.059 16.7925 121.059 17.5349C121.059 18.2773 121.299 18.862 121.784 19.3219C122.264 19.7884 122.882 20.0249 123.647 20.0249C124.413 20.0249 125.018 19.7949 125.504 19.3219C125.989 18.8554 126.229 18.2576 126.229 17.5349C126.229 16.8122 125.989 16.2078 125.504 15.7414C125.018 15.2749 124.399 15.0384 123.647 15.0384V15.0318Z" fill="#DA8590"/>
<path d="M135.383 20.4847H138.171C138.397 20.4847 138.563 20.5307 138.67 20.6293C138.776 20.7212 138.829 20.8724 138.829 21.0826C138.829 21.3191 138.776 21.4768 138.676 21.5688C138.576 21.6607 138.39 21.7001 138.117 21.7001H131.378C131.145 21.7001 130.972 21.6476 130.859 21.5425C130.745 21.4374 130.686 21.2863 130.686 21.076C130.686 20.8658 130.745 20.7278 130.872 20.6293C130.992 20.5307 131.178 20.4847 131.417 20.4847H134.072V14.9727H132.369C132.129 14.9727 131.95 14.9201 131.823 14.815C131.697 14.7099 131.637 14.5588 131.637 14.3617C131.637 14.1646 131.697 14.0135 131.81 13.9149C131.93 13.8164 132.103 13.7638 132.336 13.7638H134.884C135.037 13.7638 135.163 13.7967 135.256 13.8558C135.343 13.9215 135.389 14.0069 135.389 14.112V20.4847H135.383ZM133.773 11.287C133.773 10.6695 133.826 10.2818 133.946 10.1176C134.059 9.95992 134.298 9.87451 134.671 9.87451C135.044 9.87451 135.27 9.94021 135.383 10.0782C135.496 10.2096 135.556 10.5315 135.556 11.0374C135.556 11.5432 135.503 11.8323 135.396 11.9506C135.29 12.0688 135.044 12.128 134.671 12.128C134.298 12.128 134.059 12.0754 133.946 11.9637C133.833 11.852 133.773 11.6286 133.773 11.287Z" fill="#DA8590"/>
<path d="M147.266 20.6031C146.794 21.0236 146.275 21.3521 145.716 21.5754C145.157 21.7988 144.585 21.9105 143.993 21.9105C143.128 21.9105 142.429 21.674 141.904 21.1944C141.372 20.7214 141.105 20.1038 141.105 19.3417C141.105 18.4351 141.458 17.7387 142.163 17.2394C142.869 16.7401 143.86 16.4904 145.131 16.4904C145.47 16.4904 145.809 16.5101 146.149 16.5561C146.495 16.6021 146.841 16.6678 147.2 16.7598V16.7006C147.2 16.0437 147.04 15.5575 146.721 15.2422C146.402 14.9268 145.909 14.7691 145.237 14.7691C144.785 14.7691 144.279 14.8874 143.727 15.1305C143.175 15.3735 142.802 15.4918 142.622 15.4918C142.456 15.4918 142.316 15.4261 142.203 15.2881C142.09 15.1567 142.037 14.9794 142.037 14.7691C142.037 14.4341 142.356 14.145 142.995 13.9085C143.634 13.672 144.452 13.5537 145.45 13.5537C146.448 13.5537 147.24 13.8099 147.765 14.3224C148.284 14.8348 148.551 15.5903 148.551 16.5955V20.4848H148.976C149.389 20.4848 149.662 20.5308 149.801 20.6162C149.941 20.7017 150.008 20.8593 150.008 21.0827C150.008 21.2864 149.948 21.444 149.835 21.5492C149.722 21.6543 149.542 21.7068 149.316 21.7068H147.952C147.792 21.7068 147.659 21.6608 147.553 21.5623C147.446 21.4637 147.38 21.3258 147.346 21.1418L147.28 20.6162L147.266 20.6031ZM147.193 17.8963C146.874 17.7912 146.568 17.719 146.268 17.6664C145.969 17.6204 145.67 17.5941 145.377 17.5941C144.485 17.5941 143.78 17.7452 143.261 18.0409C142.742 18.3365 142.489 18.7373 142.489 19.2432C142.489 19.6308 142.649 19.9527 142.968 20.2023C143.288 20.452 143.7 20.5834 144.199 20.5834C144.938 20.5834 145.616 20.3929 146.249 20.0118C146.881 19.6308 147.193 19.2366 147.193 18.8227V17.8963Z" fill="#DA8590"/>
<path d="M20.7977 18.7241L26.1004 17.7124C26.3399 17.6664 26.3399 17.3247 26.1004 17.2788L20.7977 16.267C20.638 16.2342 20.5648 16.0568 20.658 15.9254L22.8203 12.7653C22.96 12.5616 22.7138 12.3251 22.5076 12.4565L19.7531 14.2961C19.62 14.388 19.4404 14.3092 19.4071 14.1581L17.9367 6.64882C17.8902 6.41231 17.5442 6.41231 17.4976 6.64882L16.0272 14.1581C15.994 14.3158 15.8143 14.388 15.6812 14.2961L12.9268 12.4565C12.7205 12.3186 12.481 12.5616 12.614 12.7653L14.7764 15.9254C14.8695 16.0568 14.7897 16.2342 14.6367 16.267L9.33394 17.2788C9.09442 17.3247 9.09442 17.6664 9.33394 17.7124L14.6367 18.7241C14.7963 18.757 14.8695 18.9343 14.7764 19.0657L12.614 22.2258C12.4743 22.4295 12.7205 22.666 12.9268 22.5346L15.6812 20.695C15.8143 20.6031 15.994 20.6819 16.0272 20.833L17.4976 28.3423C17.5442 28.5788 17.8902 28.5788 17.9367 28.3423L19.4071 20.833C19.4404 20.6753 19.62 20.6031 19.7531 20.695L22.5076 22.5346C22.7138 22.6726 22.9534 22.4295 22.8203 22.2258L20.658 19.0657C20.5648 18.9343 20.6446 18.757 20.7977 18.7241Z" fill="#DA8590"/>
<path d="M17.7179 34.9973C7.95076 34.9973 0 27.1464 0 17.4954C0 7.84434 7.95076 0 17.7179 0C18.0838 0 18.3832 0.295641 18.3832 0.65698C18.3832 1.01832 18.0838 1.31396 17.7179 1.31396C8.68263 1.31396 1.33067 8.57359 1.33067 17.4954C1.33067 26.4172 8.68263 33.6768 17.7179 33.6768C18.0838 33.6768 18.3832 33.9724 18.3832 34.3338C18.3832 34.6951 18.0838 34.9907 17.7179 34.9907V34.9973Z" fill="url(#paint0_linear_658_63)"/>
<path d="M17.7181 34.9976C17.3521 34.9976 17.0527 34.7019 17.0527 34.3406C17.0527 33.9792 17.3521 33.6836 17.7181 33.6836C26.7533 33.6836 34.1053 26.424 34.1053 17.5022C34.1053 8.5804 26.76 1.3142 17.7181 1.3142C17.3521 1.3142 17.0527 1.01856 17.0527 0.657224C17.0527 0.295885 17.3521 0.000244141 17.7181 0.000244141C27.4919 0.000244141 35.436 7.85115 35.436 17.4956C35.436 27.1401 27.4852 34.991 17.7181 34.991V34.9976Z" fill="url(#paint1_linear_658_63)"/>
<path d="M17.7181 32.4877C9.3482 32.4877 2.53516 25.7603 2.53516 17.4955C2.53516 9.23065 9.3482 2.50317 17.7181 2.50317C18.0841 2.50317 18.3835 2.79881 18.3835 3.16015C18.3835 3.52149 18.0841 3.81713 17.7181 3.81713C10.0801 3.81713 3.86583 9.95332 3.86583 17.4955C3.86583 25.0376 10.0801 31.1738 17.7181 31.1738C18.0841 31.1738 18.3835 31.4694 18.3835 31.8308C18.3835 32.1921 18.0841 32.4877 17.7181 32.4877Z" fill="url(#paint2_linear_658_63)"/>
<path d="M17.7181 32.4877C17.3521 32.4877 17.0527 32.1921 17.0527 31.8308C17.0527 31.4694 17.3521 31.1738 17.7181 31.1738C25.3561 31.1738 31.5704 25.0376 31.5704 17.4955C31.5704 9.95332 25.3561 3.81713 17.7181 3.81713C17.3521 3.81713 17.0527 3.52149 17.0527 3.16015C17.0527 2.79881 17.3521 2.50317 17.7181 2.50317C26.088 2.50317 32.901 9.23065 32.901 17.4955C32.901 25.7603 26.088 32.4877 17.7181 32.4877Z" fill="url(#paint3_linear_658_63)"/>
</g>
<defs>
<linearGradient id="paint0_linear_658_63" x1="9.19494" y1="0" x2="9.19494" y2="34.9973" gradientUnits="userSpaceOnUse">
<stop stop-color="#DA8590"/>
<stop offset="0.8" stop-color="#DA8590" stop-opacity="0"/>
</linearGradient>
<linearGradient id="paint1_linear_658_63" x1="26.2477" y1="34.9976" x2="26.2477" y2="0.000244141" gradientUnits="userSpaceOnUse">
<stop stop-color="#DA8590"/>
<stop offset="0.8" stop-color="#DA8590" stop-opacity="0"/>
</linearGradient>
<linearGradient id="paint2_linear_658_63" x1="10.4593" y1="2.50317" x2="10.4593" y2="32.4877" gradientUnits="userSpaceOnUse">
<stop stop-color="#DA8590"/>
<stop offset="0.8" stop-color="#DA8590" stop-opacity="0"/>
</linearGradient>
<linearGradient id="paint3_linear_658_63" x1="24.9769" y1="32.4877" x2="24.9769" y2="2.50317" gradientUnits="userSpaceOnUse">
<stop stop-color="#DA8590"/>
<stop offset="0.8" stop-color="#DA8590" stop-opacity="0"/>
</linearGradient>
<clipPath id="clip0_658_63">
<rect width="150" height="35" fill="white"/>
</clipPath>
</defs>
</svg>
