<svg width="198" height="59" viewBox="0 0 198 59" fill="none" xmlns="http://www.w3.org/2000/svg">
<g clip-path="url(#clip0_698_352)">
<foreignObject x="-6.66406" y="5.42407" width="210.539" height="52.1519"><div xmlns="http://www.w3.org/1999/xhtml" style="backdrop-filter:blur(2.5px);clip-path:url(#bgblur_1_698_352_clip_path);height:100%;width:100%"></div></foreignObject><g filter="url(#filter0_diii_698_352)" data-figma-bg-blur-radius="5">
<path d="M0.336 46.952L0.72 40.808C0.912 40.84 1.104 40.872 1.296 40.904C1.488 40.904 1.664 40.904 1.824 40.904C2.72 40.904 3.424 40.648 3.936 40.136C4.448 39.624 4.832 38.936 5.088 38.072C5.344 37.176 5.52 36.168 5.616 35.048C5.744 33.928 5.84 32.76 5.904 31.544L6.288 21.176H28.368V47H20.88V25.496L22.56 27.32H11.232L12.816 25.4L12.48 31.88C12.384 34.184 12.192 36.296 11.904 38.216C11.648 40.136 11.216 41.8 10.608 43.208C10 44.584 9.184 45.656 8.16 46.424C7.136 47.16 5.824 47.528 4.224 47.528C3.648 47.528 3.04 47.48 2.4 47.384C1.76 47.288 1.072 47.144 0.336 46.952ZM35.5688 47V21.176H43.0088V30.68H50.5928V37.16H43.0088V47H35.5688ZM60.0008 47.384C57.3448 47.384 54.9768 46.808 52.8968 45.656C50.8168 44.504 49.1848 42.936 48.0008 40.952C46.8168 38.936 46.2248 36.648 46.2248 34.088C46.2248 31.496 46.8168 29.208 48.0008 27.224C49.1848 25.208 50.8168 23.64 52.8968 22.52C54.9768 21.368 57.3448 20.792 60.0008 20.792C62.6568 20.792 65.0088 21.368 67.0568 22.52C69.1368 23.64 70.7688 25.208 71.9528 27.224C73.1368 29.208 73.7288 31.496 73.7288 34.088C73.7288 36.648 73.1368 38.936 71.9528 40.952C70.7688 42.968 69.1368 44.552 67.0568 45.704C65.0088 46.824 62.6568 47.384 60.0008 47.384ZM60.0008 41.24C61.2168 41.24 62.2888 40.952 63.2168 40.376C64.1768 39.8 64.9288 38.984 65.4728 37.928C66.0488 36.84 66.3368 35.56 66.3368 34.088C66.3368 32.584 66.0488 31.304 65.4728 30.248C64.9288 29.192 64.1768 28.376 63.2168 27.8C62.2888 27.224 61.2168 26.936 60.0008 26.936C58.8168 26.936 57.7288 27.224 56.7368 27.8C55.7768 28.376 55.0088 29.192 54.4328 30.248C53.8888 31.304 53.6168 32.584 53.6168 34.088C53.6168 35.56 53.8888 36.84 54.4328 37.928C55.0088 38.984 55.7768 39.8 56.7368 40.376C57.7288 40.952 58.8168 41.24 60.0008 41.24ZM91.7441 47.576C89.6321 47.576 87.7121 47.272 85.9841 46.664C84.2561 46.024 82.7521 45.048 81.4721 43.736C80.2241 42.392 79.2481 40.68 78.5441 38.6C77.8721 36.52 77.5361 34.04 77.5361 31.16C77.5361 29.112 77.7121 27.24 78.0641 25.544C78.4161 23.848 78.9441 22.312 79.6481 20.936C80.3521 19.528 81.2481 18.296 82.3361 17.24C83.4561 16.152 84.7521 15.256 86.2241 14.552C87.7281 13.816 89.4241 13.256 91.3121 12.872L103.6 10.424L104.608 16.856L93.7601 19.016C93.1201 19.144 92.3841 19.32 91.5521 19.544C90.7521 19.736 89.9361 20.04 89.1041 20.456C88.3041 20.872 87.5521 21.464 86.8481 22.232C86.1761 22.968 85.6321 23.944 85.2161 25.16C84.8001 26.344 84.5921 27.816 84.5921 29.576C84.5921 30.12 84.6081 30.536 84.6401 30.824C84.7041 31.112 84.7521 31.416 84.7841 31.736C84.8481 32.056 84.8801 32.552 84.8801 33.224L82.4801 30.872C83.1841 29.368 84.0801 28.088 85.1681 27.032C86.2881 25.976 87.5681 25.176 89.0081 24.632C90.4801 24.056 92.1121 23.768 93.9041 23.768C96.3361 23.768 98.4641 24.264 100.288 25.256C102.144 26.216 103.584 27.576 104.608 29.336C105.632 31.096 106.144 33.096 106.144 35.336C106.144 37.768 105.536 39.912 104.32 41.768C103.104 43.592 101.408 45.016 99.2321 46.04C97.0881 47.064 94.5921 47.576 91.7441 47.576ZM92.1281 41.768C93.3761 41.768 94.4801 41.496 95.4401 40.952C96.4001 40.376 97.1361 39.624 97.6481 38.696C98.1921 37.736 98.4641 36.664 98.4641 35.48C98.4641 34.328 98.1921 33.304 97.6481 32.408C97.1361 31.512 96.4001 30.808 95.4401 30.296C94.4801 29.784 93.3601 29.528 92.0801 29.528C90.8321 29.528 89.7121 29.784 88.7201 30.296C87.7281 30.776 86.9601 31.448 86.4161 32.312C85.8721 33.176 85.6001 34.184 85.6001 35.336C85.6001 36.52 85.8721 37.608 86.4161 38.6C86.9921 39.56 87.7601 40.328 88.7201 40.904C89.7121 41.48 90.8481 41.768 92.1281 41.768ZM123.321 47.384C120.569 47.384 118.121 46.808 115.977 45.656C113.865 44.504 112.185 42.936 110.937 40.952C109.721 38.936 109.113 36.648 109.113 34.088C109.113 31.496 109.721 29.208 110.937 27.224C112.185 25.208 113.865 23.64 115.977 22.52C118.121 21.368 120.569 20.792 123.321 20.792C126.041 20.792 128.473 21.368 130.617 22.52C132.761 23.64 134.441 25.192 135.657 27.176C136.873 29.16 137.481 31.464 137.481 34.088C137.481 36.648 136.873 38.936 135.657 40.952C134.441 42.936 132.761 44.504 130.617 45.656C128.473 46.808 126.041 47.384 123.321 47.384ZM123.321 41.24C124.569 41.24 125.689 40.952 126.681 40.376C127.673 39.8 128.457 38.984 129.033 37.928C129.609 36.84 129.897 35.56 129.897 34.088C129.897 32.584 129.609 31.304 129.033 30.248C128.457 29.192 127.673 28.376 126.681 27.8C125.689 27.224 124.569 26.936 123.321 26.936C122.073 26.936 120.953 27.224 119.961 27.8C118.969 28.376 118.169 29.192 117.561 30.248C116.985 31.304 116.697 32.584 116.697 34.088C116.697 35.56 116.985 36.84 117.561 37.928C118.169 38.984 118.969 39.8 119.961 40.376C120.953 40.952 122.073 41.24 123.321 41.24ZM142.631 47V21.176H155.831C159.063 21.176 161.591 21.768 163.415 22.952C165.239 24.104 166.151 25.736 166.151 27.848C166.151 29.96 165.287 31.624 163.559 32.84C161.863 34.024 159.607 34.616 156.791 34.616L157.559 32.888C160.695 32.888 163.031 33.464 164.567 34.616C166.135 35.768 166.919 37.448 166.919 39.656C166.919 41.928 166.055 43.72 164.327 45.032C162.599 46.344 159.959 47 156.407 47H142.631ZM149.495 41.912H155.783C157.159 41.912 158.183 41.688 158.855 41.24C159.559 40.76 159.911 40.04 159.911 39.08C159.911 38.088 159.591 37.368 158.951 36.92C158.311 36.44 157.303 36.2 155.927 36.2H149.495V41.912ZM149.495 31.784H155.159C156.471 31.784 157.447 31.544 158.087 31.064C158.759 30.584 159.095 29.896 159.095 29C159.095 28.072 158.759 27.384 158.087 26.936C157.447 26.488 156.471 26.264 155.159 26.264H149.495V31.784ZM186.459 29.432C189.851 29.464 192.427 30.232 194.187 31.736C195.979 33.208 196.875 35.304 196.875 38.024C196.875 40.872 195.867 43.096 193.851 44.696C191.835 46.264 189.035 47.048 185.451 47.048L172.491 47V21.176H179.931V29.432H186.459ZM184.779 41.72C186.219 41.752 187.323 41.448 188.091 40.808C188.859 40.168 189.243 39.208 189.243 37.928C189.243 36.648 188.859 35.736 188.091 35.192C187.323 34.616 186.219 34.312 184.779 34.28L179.931 34.232V41.72H184.779Z" fill="white" fill-opacity="0.2" shape-rendering="crispEdges"/>
</g>
</g>
<defs>
<filter id="filter0_diii_698_352" x="-6.66406" y="5.42407" width="210.539" height="52.1519" filterUnits="userSpaceOnUse" color-interpolation-filters="sRGB">
<feFlood flood-opacity="0" result="BackgroundImageFix"/>
<feColorMatrix in="SourceAlpha" type="matrix" values="0 0 0 0 0 0 0 0 0 0 0 0 0 0 0 0 0 0 127 0" result="hardAlpha"/>
<feOffset dy="3"/>
<feGaussianBlur stdDeviation="3.5"/>
<feComposite in2="hardAlpha" operator="out"/>
<feColorMatrix type="matrix" values="0 0 0 0 0.560784 0 0 0 0 0.360784 0 0 0 0 0.262745 0 0 0 0.4 0"/>
<feBlend mode="normal" in2="BackgroundImageFix" result="effect1_dropShadow_698_352"/>
<feBlend mode="normal" in="SourceGraphic" in2="effect1_dropShadow_698_352" result="shape"/>
<feColorMatrix in="SourceAlpha" type="matrix" values="0 0 0 0 0 0 0 0 0 0 0 0 0 0 0 0 0 0 127 0" result="hardAlpha"/>
<feOffset dy="-2"/>
<feGaussianBlur stdDeviation="15"/>
<feComposite in2="hardAlpha" operator="arithmetic" k2="-1" k3="1"/>
<feColorMatrix type="matrix" values="0 0 0 0 0.817834 0 0 0 0 0.551284 0 0 0 0 0.418009 0 0 0 0.5 0"/>
<feBlend mode="multiply" in2="shape" result="effect2_innerShadow_698_352"/>
<feColorMatrix in="SourceAlpha" type="matrix" values="0 0 0 0 0 0 0 0 0 0 0 0 0 0 0 0 0 0 127 0" result="hardAlpha"/>
<feOffset dx="3" dy="3"/>
<feGaussianBlur stdDeviation="3"/>
<feComposite in2="hardAlpha" operator="arithmetic" k2="-1" k3="1"/>
<feColorMatrix type="matrix" values="0 0 0 0 1 0 0 0 0 1 0 0 0 0 1 0 0 0 1 0"/>
<feBlend mode="normal" in2="effect2_innerShadow_698_352" result="effect3_innerShadow_698_352"/>
<feColorMatrix in="SourceAlpha" type="matrix" values="0 0 0 0 0 0 0 0 0 0 0 0 0 0 0 0 0 0 127 0" result="hardAlpha"/>
<feOffset dx="-2" dy="-2"/>
<feGaussianBlur stdDeviation="1.5"/>
<feComposite in2="hardAlpha" operator="arithmetic" k2="-1" k3="1"/>
<feColorMatrix type="matrix" values="0 0 0 0 1 0 0 0 0 1 0 0 0 0 1 0 0 0 0.5 0"/>
<feBlend mode="normal" in2="effect3_innerShadow_698_352" result="effect4_innerShadow_698_352"/>
</filter>
<clipPath id="bgblur_1_698_352_clip_path" transform="translate(6.66406 -5.42407)"><path d="M0.336 46.952L0.72 40.808C0.912 40.84 1.104 40.872 1.296 40.904C1.488 40.904 1.664 40.904 1.824 40.904C2.72 40.904 3.424 40.648 3.936 40.136C4.448 39.624 4.832 38.936 5.088 38.072C5.344 37.176 5.52 36.168 5.616 35.048C5.744 33.928 5.84 32.76 5.904 31.544L6.288 21.176H28.368V47H20.88V25.496L22.56 27.32H11.232L12.816 25.4L12.48 31.88C12.384 34.184 12.192 36.296 11.904 38.216C11.648 40.136 11.216 41.8 10.608 43.208C10 44.584 9.184 45.656 8.16 46.424C7.136 47.16 5.824 47.528 4.224 47.528C3.648 47.528 3.04 47.48 2.4 47.384C1.76 47.288 1.072 47.144 0.336 46.952ZM35.5688 47V21.176H43.0088V30.68H50.5928V37.16H43.0088V47H35.5688ZM60.0008 47.384C57.3448 47.384 54.9768 46.808 52.8968 45.656C50.8168 44.504 49.1848 42.936 48.0008 40.952C46.8168 38.936 46.2248 36.648 46.2248 34.088C46.2248 31.496 46.8168 29.208 48.0008 27.224C49.1848 25.208 50.8168 23.64 52.8968 22.52C54.9768 21.368 57.3448 20.792 60.0008 20.792C62.6568 20.792 65.0088 21.368 67.0568 22.52C69.1368 23.64 70.7688 25.208 71.9528 27.224C73.1368 29.208 73.7288 31.496 73.7288 34.088C73.7288 36.648 73.1368 38.936 71.9528 40.952C70.7688 42.968 69.1368 44.552 67.0568 45.704C65.0088 46.824 62.6568 47.384 60.0008 47.384ZM60.0008 41.24C61.2168 41.24 62.2888 40.952 63.2168 40.376C64.1768 39.8 64.9288 38.984 65.4728 37.928C66.0488 36.84 66.3368 35.56 66.3368 34.088C66.3368 32.584 66.0488 31.304 65.4728 30.248C64.9288 29.192 64.1768 28.376 63.2168 27.8C62.2888 27.224 61.2168 26.936 60.0008 26.936C58.8168 26.936 57.7288 27.224 56.7368 27.8C55.7768 28.376 55.0088 29.192 54.4328 30.248C53.8888 31.304 53.6168 32.584 53.6168 34.088C53.6168 35.56 53.8888 36.84 54.4328 37.928C55.0088 38.984 55.7768 39.8 56.7368 40.376C57.7288 40.952 58.8168 41.24 60.0008 41.24ZM91.7441 47.576C89.6321 47.576 87.7121 47.272 85.9841 46.664C84.2561 46.024 82.7521 45.048 81.4721 43.736C80.2241 42.392 79.2481 40.68 78.5441 38.6C77.8721 36.52 77.5361 34.04 77.5361 31.16C77.5361 29.112 77.7121 27.24 78.0641 25.544C78.4161 23.848 78.9441 22.312 79.6481 20.936C80.3521 19.528 81.2481 18.296 82.3361 17.24C83.4561 16.152 84.7521 15.256 86.2241 14.552C87.7281 13.816 89.4241 13.256 91.3121 12.872L103.6 10.424L104.608 16.856L93.7601 19.016C93.1201 19.144 92.3841 19.32 91.5521 19.544C90.7521 19.736 89.9361 20.04 89.1041 20.456C88.3041 20.872 87.5521 21.464 86.8481 22.232C86.1761 22.968 85.6321 23.944 85.2161 25.16C84.8001 26.344 84.5921 27.816 84.5921 29.576C84.5921 30.12 84.6081 30.536 84.6401 30.824C84.7041 31.112 84.7521 31.416 84.7841 31.736C84.8481 32.056 84.8801 32.552 84.8801 33.224L82.4801 30.872C83.1841 29.368 84.0801 28.088 85.1681 27.032C86.2881 25.976 87.5681 25.176 89.0081 24.632C90.4801 24.056 92.1121 23.768 93.9041 23.768C96.3361 23.768 98.4641 24.264 100.288 25.256C102.144 26.216 103.584 27.576 104.608 29.336C105.632 31.096 106.144 33.096 106.144 35.336C106.144 37.768 105.536 39.912 104.32 41.768C103.104 43.592 101.408 45.016 99.2321 46.04C97.0881 47.064 94.5921 47.576 91.7441 47.576ZM92.1281 41.768C93.3761 41.768 94.4801 41.496 95.4401 40.952C96.4001 40.376 97.1361 39.624 97.6481 38.696C98.1921 37.736 98.4641 36.664 98.4641 35.48C98.4641 34.328 98.1921 33.304 97.6481 32.408C97.1361 31.512 96.4001 30.808 95.4401 30.296C94.4801 29.784 93.3601 29.528 92.0801 29.528C90.8321 29.528 89.7121 29.784 88.7201 30.296C87.7281 30.776 86.9601 31.448 86.4161 32.312C85.8721 33.176 85.6001 34.184 85.6001 35.336C85.6001 36.52 85.8721 37.608 86.4161 38.6C86.9921 39.56 87.7601 40.328 88.7201 40.904C89.7121 41.48 90.8481 41.768 92.1281 41.768ZM123.321 47.384C120.569 47.384 118.121 46.808 115.977 45.656C113.865 44.504 112.185 42.936 110.937 40.952C109.721 38.936 109.113 36.648 109.113 34.088C109.113 31.496 109.721 29.208 110.937 27.224C112.185 25.208 113.865 23.64 115.977 22.52C118.121 21.368 120.569 20.792 123.321 20.792C126.041 20.792 128.473 21.368 130.617 22.52C132.761 23.64 134.441 25.192 135.657 27.176C136.873 29.16 137.481 31.464 137.481 34.088C137.481 36.648 136.873 38.936 135.657 40.952C134.441 42.936 132.761 44.504 130.617 45.656C128.473 46.808 126.041 47.384 123.321 47.384ZM123.321 41.24C124.569 41.24 125.689 40.952 126.681 40.376C127.673 39.8 128.457 38.984 129.033 37.928C129.609 36.84 129.897 35.56 129.897 34.088C129.897 32.584 129.609 31.304 129.033 30.248C128.457 29.192 127.673 28.376 126.681 27.8C125.689 27.224 124.569 26.936 123.321 26.936C122.073 26.936 120.953 27.224 119.961 27.8C118.969 28.376 118.169 29.192 117.561 30.248C116.985 31.304 116.697 32.584 116.697 34.088C116.697 35.56 116.985 36.84 117.561 37.928C118.169 38.984 118.969 39.8 119.961 40.376C120.953 40.952 122.073 41.24 123.321 41.24ZM142.631 47V21.176H155.831C159.063 21.176 161.591 21.768 163.415 22.952C165.239 24.104 166.151 25.736 166.151 27.848C166.151 29.96 165.287 31.624 163.559 32.84C161.863 34.024 159.607 34.616 156.791 34.616L157.559 32.888C160.695 32.888 163.031 33.464 164.567 34.616C166.135 35.768 166.919 37.448 166.919 39.656C166.919 41.928 166.055 43.72 164.327 45.032C162.599 46.344 159.959 47 156.407 47H142.631ZM149.495 41.912H155.783C157.159 41.912 158.183 41.688 158.855 41.24C159.559 40.76 159.911 40.04 159.911 39.08C159.911 38.088 159.591 37.368 158.951 36.92C158.311 36.44 157.303 36.2 155.927 36.2H149.495V41.912ZM149.495 31.784H155.159C156.471 31.784 157.447 31.544 158.087 31.064C158.759 30.584 159.095 29.896 159.095 29C159.095 28.072 158.759 27.384 158.087 26.936C157.447 26.488 156.471 26.264 155.159 26.264H149.495V31.784ZM186.459 29.432C189.851 29.464 192.427 30.232 194.187 31.736C195.979 33.208 196.875 35.304 196.875 38.024C196.875 40.872 195.867 43.096 193.851 44.696C191.835 46.264 189.035 47.048 185.451 47.048L172.491 47V21.176H179.931V29.432H186.459ZM184.779 41.72C186.219 41.752 187.323 41.448 188.091 40.808C188.859 40.168 189.243 39.208 189.243 37.928C189.243 36.648 188.859 35.736 188.091 35.192C187.323 34.616 186.219 34.312 184.779 34.28L179.931 34.232V41.72H184.779Z"/>
</clipPath><clipPath id="clip0_698_352">
<rect width="198" height="59" fill="white"/>
</clipPath>
</defs>
</svg>
