<svg width="84" height="107" viewBox="0 0 84 107" fill="none" xmlns="http://www.w3.org/2000/svg">
<path d="M57.1073 59.4677L83.1107 54.5578C84.2964 54.3183 84.2964 52.6817 83.1107 52.4422L57.1073 47.5323C56.3305 47.3726 55.9625 46.5343 56.4123 45.8956L67.0017 30.5672C67.6968 29.6091 66.4702 28.4116 65.4889 29.0902L51.9966 37.9919C51.3424 38.431 50.4429 38.0717 50.3203 37.3133L43.0835 0.868215C42.8382 -0.289405 41.1618 -0.289405 40.9165 0.868215L33.6797 37.3133C33.5162 38.0717 32.6576 38.431 32.0034 37.9919L18.5111 29.0902C17.5298 28.4116 16.3032 29.6091 16.9983 30.5672L27.5877 45.8956C28.0375 46.5343 27.6695 47.4125 26.8927 47.5323L0.889267 52.4422C-0.296422 52.6817 -0.296422 54.3183 0.889267 54.5578L26.8927 59.4677C27.6695 59.6274 28.0375 60.4657 27.5877 61.1044L16.9983 76.4329C16.3032 77.3909 17.5298 78.5884 18.5111 77.9098L32.0034 69.0081C32.6576 68.569 33.5571 68.9283 33.6797 69.6867L40.9165 106.132C41.1618 107.289 42.8382 107.289 43.0835 106.132L50.3203 69.6867C50.4838 68.9283 51.3424 68.569 51.9966 69.0081L65.4889 77.9098C66.4702 78.5884 67.6968 77.3909 67.0017 76.4329L56.4123 61.1044C55.9625 60.4657 56.3305 59.5875 57.1073 59.4677Z" fill="#F8EBE2"/>
</svg>
