<svg width="30" height="39" viewBox="0 0 30 39" fill="none" xmlns="http://www.w3.org/2000/svg">
<path d="M20.3955 21.6752L29.6824 19.8856C30.1059 19.7983 30.1059 19.2017 29.6824 19.1144L20.3955 17.3248C20.118 17.2666 19.9866 16.9611 20.1472 16.7283L23.9292 11.1413C24.1774 10.7921 23.7394 10.3556 23.3889 10.603L18.5702 13.8475C18.3366 14.0076 18.0153 13.8766 17.9715 13.6002L15.387 0.316452C15.2993 -0.105484 14.7007 -0.105484 14.613 0.316452L12.0285 13.6002C11.9701 13.8766 11.6634 14.0076 11.4298 13.8475L6.6111 10.603C6.26065 10.3556 5.82258 10.7921 6.07082 11.1413L9.85276 16.7283C10.0134 16.9611 9.88197 17.2812 9.60453 17.3248L0.317596 19.1144C-0.105865 19.2017 -0.105865 19.7983 0.317596 19.8856L9.60453 21.6752C9.88197 21.7334 10.0134 22.0389 9.85276 22.2717L6.07082 27.8587C5.82258 28.2079 6.26065 28.6444 6.6111 28.397L11.4298 25.1525C11.6634 24.9924 11.9847 25.1234 12.0285 25.3998L14.613 38.6835C14.7007 39.1055 15.2993 39.1055 15.387 38.6835L17.9715 25.3998C18.0299 25.1234 18.3366 24.9924 18.5702 25.1525L23.3889 28.397C23.7394 28.6444 24.1774 28.2079 23.9292 27.8587L20.1472 22.2717C19.9866 22.0389 20.118 21.7188 20.3955 21.6752Z" fill="#F9F9F4"/>
</svg>
