<svg width="179" height="59" viewBox="0 0 179 59" fill="none" xmlns="http://www.w3.org/2000/svg">
<g clip-path="url(#clip0_698_359)">
<foreignObject x="-6.61523" y="15.792" width="191.584" height="50.52"><div xmlns="http://www.w3.org/1999/xhtml" style="backdrop-filter:blur(2.5px);clip-path:url(#bgblur_1_698_359_clip_path);height:100%;width:100%"></div></foreignObject><g filter="url(#filter0_diii_698_359)" data-figma-bg-blur-radius="5">
<path d="M9.12 47V25.592L10.8 27.32H0.384V21.176H25.296V27.32H14.88L16.56 25.592V47H9.12ZM44.5035 47.384C42.3275 47.384 40.4235 46.904 38.7915 45.944C37.1595 44.984 35.8795 43.528 34.9515 41.576C34.0555 39.592 33.6075 37.096 33.6075 34.088C33.6075 31.048 34.0395 28.552 34.9035 26.6C35.7675 24.648 37.0155 23.192 38.6475 22.232C40.2795 21.272 42.2315 20.792 44.5035 20.792C46.9355 20.792 49.1115 21.352 51.0315 22.472C52.9835 23.56 54.5195 25.096 55.6395 27.08C56.7915 29.064 57.3675 31.4 57.3675 34.088C57.3675 36.808 56.7915 39.16 55.6395 41.144C54.5195 43.128 52.9835 44.664 51.0315 45.752C49.1115 46.84 46.9355 47.384 44.5035 47.384ZM29.2395 56.312V21.176H36.3915V26.456L36.2475 34.136L36.7275 41.768V56.312H29.2395ZM43.2075 41.24C44.4555 41.24 45.5595 40.952 46.5195 40.376C47.5115 39.8 48.2955 38.984 48.8715 37.928C49.4795 36.84 49.7835 35.56 49.7835 34.088C49.7835 32.584 49.4795 31.304 48.8715 30.248C48.2955 29.192 47.5115 28.376 46.5195 27.8C45.5595 27.224 44.4555 26.936 43.2075 26.936C41.9595 26.936 40.8395 27.224 39.8475 27.8C38.8555 28.376 38.0715 29.192 37.4955 30.248C36.9195 31.304 36.6315 32.584 36.6315 34.088C36.6315 35.56 36.9195 36.84 37.4955 37.928C38.0715 38.984 38.8555 39.8 39.8475 40.376C40.8395 40.952 41.9595 41.24 43.2075 41.24ZM75.2396 47.384C72.2956 47.384 69.7036 46.808 67.4636 45.656C65.2556 44.504 63.5436 42.936 62.3276 40.952C61.1116 38.936 60.5036 36.648 60.5036 34.088C60.5036 31.496 61.0956 29.208 62.2796 27.224C63.4956 25.208 65.1436 23.64 67.2236 22.52C69.3036 21.368 71.6556 20.792 74.2796 20.792C76.8076 20.792 79.0796 21.336 81.0956 22.424C83.1436 23.48 84.7596 25.016 85.9436 27.032C87.1276 29.016 87.7196 31.4 87.7196 34.184C87.7196 34.472 87.7036 34.808 87.6716 35.192C87.6396 35.544 87.6076 35.88 87.5756 36.2H66.5996V31.832H83.6396L80.7596 33.128C80.7596 31.784 80.4876 30.616 79.9436 29.624C79.3996 28.632 78.6476 27.864 77.6876 27.32C76.7276 26.744 75.6076 26.456 74.3276 26.456C73.0476 26.456 71.9116 26.744 70.9196 27.32C69.9596 27.864 69.2076 28.648 68.6636 29.672C68.1196 30.664 67.8476 31.848 67.8476 33.224V34.376C67.8476 35.784 68.1516 37.032 68.7596 38.12C69.3996 39.176 70.2796 39.992 71.3996 40.568C72.5516 41.112 73.8956 41.384 75.4316 41.384C76.8076 41.384 78.0076 41.176 79.0316 40.76C80.0876 40.344 81.0476 39.72 81.9116 38.888L85.8956 43.208C84.7116 44.552 83.2236 45.592 81.4316 46.328C79.6396 47.032 77.5756 47.384 75.2396 47.384ZM93.4594 47V21.176H119.139V47H111.651V25.64L113.331 27.32H99.2194L100.899 25.64V47H93.4594ZM138.943 47.384C135.999 47.384 133.407 46.808 131.167 45.656C128.959 44.504 127.247 42.936 126.031 40.952C124.815 38.936 124.207 36.648 124.207 34.088C124.207 31.496 124.799 29.208 125.983 27.224C127.199 25.208 128.847 23.64 130.927 22.52C133.007 21.368 135.359 20.792 137.983 20.792C140.511 20.792 142.783 21.336 144.799 22.424C146.847 23.48 148.463 25.016 149.647 27.032C150.831 29.016 151.423 31.4 151.423 34.184C151.423 34.472 151.407 34.808 151.375 35.192C151.343 35.544 151.311 35.88 151.279 36.2H130.303V31.832H147.343L144.463 33.128C144.463 31.784 144.191 30.616 143.647 29.624C143.103 28.632 142.351 27.864 141.391 27.32C140.431 26.744 139.311 26.456 138.031 26.456C136.751 26.456 135.615 26.744 134.623 27.32C133.663 27.864 132.911 28.648 132.367 29.672C131.823 30.664 131.551 31.848 131.551 33.224V34.376C131.551 35.784 131.855 37.032 132.463 38.12C133.103 39.176 133.983 39.992 135.103 40.568C136.255 41.112 137.599 41.384 139.135 41.384C140.511 41.384 141.711 41.176 142.735 40.76C143.791 40.344 144.751 39.72 145.615 38.888L149.599 43.208C148.415 44.552 146.927 45.592 145.135 46.328C143.343 47.032 141.279 47.384 138.943 47.384ZM161.792 47V25.592L163.472 27.32H153.056V21.176H177.968V27.32H167.552L169.232 25.592V47H161.792Z" fill="white" fill-opacity="0.2" shape-rendering="crispEdges"/>
</g>
</g>
<defs>
<filter id="filter0_diii_698_359" x="-6.61523" y="15.792" width="191.584" height="50.52" filterUnits="userSpaceOnUse" color-interpolation-filters="sRGB">
<feFlood flood-opacity="0" result="BackgroundImageFix"/>
<feColorMatrix in="SourceAlpha" type="matrix" values="0 0 0 0 0 0 0 0 0 0 0 0 0 0 0 0 0 0 127 0" result="hardAlpha"/>
<feOffset dy="3"/>
<feGaussianBlur stdDeviation="3.5"/>
<feComposite in2="hardAlpha" operator="out"/>
<feColorMatrix type="matrix" values="0 0 0 0 0.560784 0 0 0 0 0.360784 0 0 0 0 0.262745 0 0 0 0.4 0"/>
<feBlend mode="normal" in2="BackgroundImageFix" result="effect1_dropShadow_698_359"/>
<feBlend mode="normal" in="SourceGraphic" in2="effect1_dropShadow_698_359" result="shape"/>
<feColorMatrix in="SourceAlpha" type="matrix" values="0 0 0 0 0 0 0 0 0 0 0 0 0 0 0 0 0 0 127 0" result="hardAlpha"/>
<feOffset dy="-2"/>
<feGaussianBlur stdDeviation="15"/>
<feComposite in2="hardAlpha" operator="arithmetic" k2="-1" k3="1"/>
<feColorMatrix type="matrix" values="0 0 0 0 0.817834 0 0 0 0 0.551284 0 0 0 0 0.418009 0 0 0 0.5 0"/>
<feBlend mode="multiply" in2="shape" result="effect2_innerShadow_698_359"/>
<feColorMatrix in="SourceAlpha" type="matrix" values="0 0 0 0 0 0 0 0 0 0 0 0 0 0 0 0 0 0 127 0" result="hardAlpha"/>
<feOffset dx="3" dy="3"/>
<feGaussianBlur stdDeviation="3"/>
<feComposite in2="hardAlpha" operator="arithmetic" k2="-1" k3="1"/>
<feColorMatrix type="matrix" values="0 0 0 0 1 0 0 0 0 1 0 0 0 0 1 0 0 0 1 0"/>
<feBlend mode="normal" in2="effect2_innerShadow_698_359" result="effect3_innerShadow_698_359"/>
<feColorMatrix in="SourceAlpha" type="matrix" values="0 0 0 0 0 0 0 0 0 0 0 0 0 0 0 0 0 0 127 0" result="hardAlpha"/>
<feOffset dx="-2" dy="-2"/>
<feGaussianBlur stdDeviation="1.5"/>
<feComposite in2="hardAlpha" operator="arithmetic" k2="-1" k3="1"/>
<feColorMatrix type="matrix" values="0 0 0 0 1 0 0 0 0 1 0 0 0 0 1 0 0 0 0.5 0"/>
<feBlend mode="normal" in2="effect3_innerShadow_698_359" result="effect4_innerShadow_698_359"/>
</filter>
<clipPath id="bgblur_1_698_359_clip_path" transform="translate(6.61523 -15.792)"><path d="M9.12 47V25.592L10.8 27.32H0.384V21.176H25.296V27.32H14.88L16.56 25.592V47H9.12ZM44.5035 47.384C42.3275 47.384 40.4235 46.904 38.7915 45.944C37.1595 44.984 35.8795 43.528 34.9515 41.576C34.0555 39.592 33.6075 37.096 33.6075 34.088C33.6075 31.048 34.0395 28.552 34.9035 26.6C35.7675 24.648 37.0155 23.192 38.6475 22.232C40.2795 21.272 42.2315 20.792 44.5035 20.792C46.9355 20.792 49.1115 21.352 51.0315 22.472C52.9835 23.56 54.5195 25.096 55.6395 27.08C56.7915 29.064 57.3675 31.4 57.3675 34.088C57.3675 36.808 56.7915 39.16 55.6395 41.144C54.5195 43.128 52.9835 44.664 51.0315 45.752C49.1115 46.84 46.9355 47.384 44.5035 47.384ZM29.2395 56.312V21.176H36.3915V26.456L36.2475 34.136L36.7275 41.768V56.312H29.2395ZM43.2075 41.24C44.4555 41.24 45.5595 40.952 46.5195 40.376C47.5115 39.8 48.2955 38.984 48.8715 37.928C49.4795 36.84 49.7835 35.56 49.7835 34.088C49.7835 32.584 49.4795 31.304 48.8715 30.248C48.2955 29.192 47.5115 28.376 46.5195 27.8C45.5595 27.224 44.4555 26.936 43.2075 26.936C41.9595 26.936 40.8395 27.224 39.8475 27.8C38.8555 28.376 38.0715 29.192 37.4955 30.248C36.9195 31.304 36.6315 32.584 36.6315 34.088C36.6315 35.56 36.9195 36.84 37.4955 37.928C38.0715 38.984 38.8555 39.8 39.8475 40.376C40.8395 40.952 41.9595 41.24 43.2075 41.24ZM75.2396 47.384C72.2956 47.384 69.7036 46.808 67.4636 45.656C65.2556 44.504 63.5436 42.936 62.3276 40.952C61.1116 38.936 60.5036 36.648 60.5036 34.088C60.5036 31.496 61.0956 29.208 62.2796 27.224C63.4956 25.208 65.1436 23.64 67.2236 22.52C69.3036 21.368 71.6556 20.792 74.2796 20.792C76.8076 20.792 79.0796 21.336 81.0956 22.424C83.1436 23.48 84.7596 25.016 85.9436 27.032C87.1276 29.016 87.7196 31.4 87.7196 34.184C87.7196 34.472 87.7036 34.808 87.6716 35.192C87.6396 35.544 87.6076 35.88 87.5756 36.2H66.5996V31.832H83.6396L80.7596 33.128C80.7596 31.784 80.4876 30.616 79.9436 29.624C79.3996 28.632 78.6476 27.864 77.6876 27.32C76.7276 26.744 75.6076 26.456 74.3276 26.456C73.0476 26.456 71.9116 26.744 70.9196 27.32C69.9596 27.864 69.2076 28.648 68.6636 29.672C68.1196 30.664 67.8476 31.848 67.8476 33.224V34.376C67.8476 35.784 68.1516 37.032 68.7596 38.12C69.3996 39.176 70.2796 39.992 71.3996 40.568C72.5516 41.112 73.8956 41.384 75.4316 41.384C76.8076 41.384 78.0076 41.176 79.0316 40.76C80.0876 40.344 81.0476 39.72 81.9116 38.888L85.8956 43.208C84.7116 44.552 83.2236 45.592 81.4316 46.328C79.6396 47.032 77.5756 47.384 75.2396 47.384ZM93.4594 47V21.176H119.139V47H111.651V25.64L113.331 27.32H99.2194L100.899 25.64V47H93.4594ZM138.943 47.384C135.999 47.384 133.407 46.808 131.167 45.656C128.959 44.504 127.247 42.936 126.031 40.952C124.815 38.936 124.207 36.648 124.207 34.088C124.207 31.496 124.799 29.208 125.983 27.224C127.199 25.208 128.847 23.64 130.927 22.52C133.007 21.368 135.359 20.792 137.983 20.792C140.511 20.792 142.783 21.336 144.799 22.424C146.847 23.48 148.463 25.016 149.647 27.032C150.831 29.016 151.423 31.4 151.423 34.184C151.423 34.472 151.407 34.808 151.375 35.192C151.343 35.544 151.311 35.88 151.279 36.2H130.303V31.832H147.343L144.463 33.128C144.463 31.784 144.191 30.616 143.647 29.624C143.103 28.632 142.351 27.864 141.391 27.32C140.431 26.744 139.311 26.456 138.031 26.456C136.751 26.456 135.615 26.744 134.623 27.32C133.663 27.864 132.911 28.648 132.367 29.672C131.823 30.664 131.551 31.848 131.551 33.224V34.376C131.551 35.784 131.855 37.032 132.463 38.12C133.103 39.176 133.983 39.992 135.103 40.568C136.255 41.112 137.599 41.384 139.135 41.384C140.511 41.384 141.711 41.176 142.735 40.76C143.791 40.344 144.751 39.72 145.615 38.888L149.599 43.208C148.415 44.552 146.927 45.592 145.135 46.328C143.343 47.032 141.279 47.384 138.943 47.384ZM161.792 47V25.592L163.472 27.32H153.056V21.176H177.968V27.32H167.552L169.232 25.592V47H161.792Z"/>
</clipPath><clipPath id="clip0_698_359">
<rect width="179" height="59" fill="white"/>
</clipPath>
</defs>
</svg>
